<?xml version="1.0" standalone="no"?>
<!DOCTYPE svg PUBLIC "-//W3C//DTD SVG 20010904//EN"
 "http://www.w3.org/TR/2001/REC-SVG-20010904/DTD/svg10.dtd">
<svg version="1.0" xmlns="http://www.w3.org/2000/svg"
 width="400.000000pt" height="225.000000pt" viewBox="0 0 400.000000 225.000000"
 preserveAspectRatio="xMidYMid meet">

<g transform="translate(0.000000,225.000000) scale(0.100000,-0.100000)"
fill="#000000" stroke="none">
<path d="M3855 2238 c-3 -7 -7 -28 -9 -46 -3 -29 1 -37 28 -53 17 -10 41 -19
53 -19 31 0 64 46 57 79 -9 36 -21 48 -36 33 -16 -16 -43 -15 -58 3 -15 18
-29 19 -35 3z m30 -18 c8 -13 48 -13 62 1 14 14 27 -23 19 -56 -8 -30 -38 -40
-73 -23 -23 11 -28 20 -29 51 -1 36 8 48 21 27z"/>
<path d="M3889 2169 c-10 -6 -7 -9 14 -9 29 0 35 5 14 13 -8 3 -20 1 -28 -4z"/>
<path d="M2407 2234 c-3 -3 -3 -12 0 -20 4 -10 -3 -14 -21 -14 -26 0 -35 -13
-16 -25 6 -4 7 -12 4 -18 -5 -8 -3 -8 7 1 17 16 37 16 21 0 -28 -28 2 -31 36
-4 8 5 31 9 52 7 35 -2 38 0 33 18 -3 12 -9 21 -15 21 -5 0 -4 9 2 20 14 25
-10 28 -35 4 -15 -15 -17 -15 -34 0 -19 17 -25 19 -34 10z"/>
<path d="M2163 2214 c-35 -17 -47 -41 -37 -68 7 -18 43 -13 56 8 5 7 20 -3 41
-27 19 -20 38 -37 43 -37 4 0 -6 15 -24 33 -18 18 -32 38 -32 44 0 6 -7 14
-16 17 -22 9 -24 8 -18 -9 4 -8 1 -15 -5 -15 -12 0 -14 20 -3 35 4 6 21 11 37
12 23 2 26 1 11 -6 -14 -5 -16 -10 -8 -15 7 -4 17 -4 22 -1 13 8 13 35 1 35
-5 0 -15 2 -23 5 -7 2 -27 -3 -45 -11z m-16 -61 c-3 -10 -5 -4 -5 12 0 17 2
24 5 18 2 -7 2 -21 0 -30z"/>
<path d="M1929 2192 c-34 -22 -53 -28 -81 -24 -29 3 -52 -4 -105 -34 -37 -20
-82 -45 -100 -55 -108 -60 -118 -76 -96 -144 24 -70 38 -78 118 -71 80 6 154
26 238 63 57 26 68 41 44 62 -13 10 -75 -1 -132 -24 -11 -5 9 14 45 41 46 35
66 57 68 75 2 15 14 32 30 41 15 9 35 25 45 35 15 17 15 21 1 41 -19 28 -21
28 -75 -6z m72 -4 c11 -21 11 -22 -4 -9 -10 7 -17 17 -17 22 0 15 9 10 21 -13z
m-21 -9 c7 -11 10 -22 8 -23 -67 -49 -75 -59 -71 -75 3 -12 -5 -26 -23 -40
-35 -28 -40 -27 -53 9 -5 17 -12 30 -15 30 -11 0 -132 -54 -144 -65 -10 -9 -9
-19 3 -51 11 -29 14 -31 9 -9 -4 17 -7 36 -8 43 -1 10 135 78 139 69 27 -55
26 -56 -19 -88 -23 -17 -75 -48 -114 -70 -70 -37 -72 -38 -73 -16 0 21 -1 21
-10 -3 l-10 -25 -19 25 c-22 29 -35 80 -26 107 7 21 12 25 155 106 90 51 110
58 142 54 29 -4 45 1 71 19 41 29 45 29 58 3z"/>
<path d="M1579 1974 c12 -15 21 -33 21 -40 0 -8 4 -14 10 -14 5 0 6 8 3 18
-11 29 -35 62 -45 62 -5 0 0 -12 11 -26z"/>
<path d="M2885 2210 c-4 -6 -15 -8 -26 -5 -23 8 -26 -21 -5 -50 17 -24 43 -14
52 20 7 29 -9 55 -21 35z m4 -46 c-9 -11 -15 -12 -25 -3 -18 15 -18 40 0 33 8
-3 18 1 22 8 7 10 9 9 12 -5 2 -10 -2 -25 -9 -33z"/>
<path d="M3450 2207 c-14 -6 -26 -12 -28 -13 -7 -5 50 -85 64 -91 10 -4 30 8
55 33 l39 40 -20 22 c-17 18 -25 20 -41 11 -13 -6 -25 -7 -32 -1 -8 6 -21 6
-37 -1z m40 -17 c0 -6 7 -6 19 1 22 14 55 5 48 -14 -2 -7 -22 -12 -53 -12 -38
0 -49 4 -52 18 -2 12 3 17 17 17 12 0 21 -5 21 -10z m23 -50 c20 0 20 -1 4
-17 -16 -16 -18 -16 -40 6 -18 20 -19 23 -4 17 10 -3 28 -6 40 -6z"/>
<path d="M960 2191 c0 -25 6 -27 13 -6 4 8 2 17 -3 20 -6 4 -10 -3 -10 -14z"/>
<path d="M3205 2200 c-9 -15 5 -32 22 -26 8 3 24 -1 36 -9 15 -11 24 -12 34
-3 10 8 13 6 13 -7 0 -11 5 -15 14 -12 18 7 66 -14 66 -29 0 -6 -10 -18 -22
-27 -13 -8 -20 -18 -15 -23 9 -9 58 36 51 47 -3 5 3 6 12 2 12 -4 15 -3 10 5
-4 7 -13 12 -21 12 -7 0 -15 7 -19 15 -3 8 -12 12 -21 9 -9 -4 -17 1 -21 11
-4 9 -12 14 -19 12 -6 -3 -17 4 -23 14 -10 16 -15 17 -32 7 -15 -10 -22 -10
-32 0 -15 15 -25 15 -33 2z m25 -10 c0 -5 -4 -10 -10 -10 -5 0 -10 5 -10 10 0
6 5 10 10 10 6 0 10 -4 10 -10z m60 -10 c0 -5 -7 -10 -16 -10 -8 0 -12 5 -9
10 3 6 10 10 16 10 5 0 9 -4 9 -10z"/>
<path d="M662 2170 c-41 -25 -54 -59 -54 -135 0 -37 -5 -69 -15 -84 -13 -21
-20 -23 -60 -17 l-44 6 7 -48 c14 -94 43 -135 106 -153 33 -9 46 -7 91 14 66
30 113 77 127 125 13 49 13 62 -5 96 -19 36 -19 45 1 68 15 16 15 18 1 24 -8
3 -18 23 -22 44 -13 75 -67 100 -133 60z m105 -19 c18 -23 16 -52 -8 -90 -20
-34 -15 -50 16 -51 16 0 35 -51 35 -94 0 -56 -29 -99 -92 -136 -86 -50 -161
-32 -194 47 -8 18 -14 47 -14 64 0 30 2 31 31 25 26 -5 36 -1 56 22 21 23 25
37 26 103 2 86 17 113 71 128 35 9 56 4 73 -18z"/>
<path d="M705 2090 c3 -5 8 -10 11 -10 2 0 4 5 4 10 0 6 -5 10 -11 10 -5 0 -7
-4 -4 -10z"/>
<path d="M607 1903 c-4 -3 -7 -11 -7 -17 0 -7 3 -7 8 0 4 7 18 14 32 17 l25 4
-26 2 c-14 0 -29 -2 -32 -6z"/>
<path d="M602 1860 c3 -9 18 -16 39 -17 24 -1 26 0 9 4 -14 3 -31 10 -39 16
-11 10 -13 9 -9 -3z"/>
<path d="M1075 2180 c-4 -6 -10 -8 -15 -5 -5 3 -11 2 -14 -3 -2 -4 4 -8 14 -9
10 -1 21 5 24 13 6 16 0 19 -9 4z"/>
<path d="M1527 2170 c3 -11 9 -22 13 -25 5 -3 6 4 3 15 -3 11 -9 22 -13 25 -5
3 -6 -4 -3 -15z"/>
<path d="M1609 2178 c11 -15 11 -21 0 -35 -12 -17 -12 -17 6 0 19 17 19 17 0
35 -18 16 -18 16 -6 0z"/>
<path d="M2553 2162 c35 -43 42 -73 29 -124 -14 -55 -7 -62 9 -10 16 55 5 103
-33 138 l-32 29 27 -33z"/>
<path d="M1500 2170 c0 -6 -6 -8 -12 -4 -7 4 -9 3 -5 -1 10 -12 37 -15 37 -5
0 5 -4 12 -10 15 -5 3 -10 1 -10 -5z"/>
<path d="M1550 2171 c0 -6 4 -13 10 -16 6 -3 7 1 4 9 -7 18 -14 21 -14 7z"/>
<path d="M2942 2169 c-19 -7 -21 -12 -12 -29 13 -24 28 -22 44 3 15 23 -3 37
-32 26z m26 -21 c-6 -18 -25 -21 -31 -5 -3 8 3 13 15 14 10 1 18 -3 16 -9z"/>
<path d="M3691 2164 c0 -11 3 -14 6 -6 3 7 2 16 -1 19 -3 4 -6 -2 -5 -13z"/>
<path d="M2798 2157 c-26 -12 -27 -12 -8 -34 13 -17 20 -20 27 -10 17 21 25
43 9 23 -14 -18 -36 -15 -36 5 0 6 4 8 9 5 5 -3 14 1 21 9 15 18 13 18 -22 2z"/>
<path d="M3789 2153 c-13 -16 -12 -17 4 -4 16 13 21 21 13 21 -2 0 -10 -8 -17
-17z"/>
<path d="M895 2140 c4 -6 11 -8 16 -5 14 9 11 15 -7 15 -8 0 -12 -5 -9 -10z"/>
<path d="M1040 2144 c0 -6 8 -18 18 -27 14 -13 21 -14 30 -5 7 7 12 16 12 22
0 5 -6 2 -13 -9 -13 -17 -15 -17 -30 6 -10 13 -17 19 -17 13z"/>
<path d="M1253 2143 c-18 -7 -113 -123 -113 -136 1 -7 8 0 16 16 8 15 19 27
24 27 4 0 18 15 29 34 24 38 69 61 105 52 14 -3 35 -24 50 -48 14 -24 25 -37
26 -29 0 7 -14 31 -31 52 -24 31 -37 39 -62 38 -18 0 -38 -3 -44 -6z"/>
<path d="M986 2132 c-2 -4 4 -8 14 -8 10 0 16 4 14 8 -3 4 -9 8 -14 8 -5 0
-11 -4 -14 -8z"/>
<path d="M2354 2126 c-3 -8 -4 -23 -2 -33 3 -11 6 -6 9 15 6 34 2 42 -7 18z"/>
<path d="M925 2120 c-3 -5 0 -7 8 -4 8 3 18 1 22 -5 3 -6 12 -11 18 -11 7 0 3
7 -7 15 -23 18 -33 19 -41 5z"/>
<path d="M3685 2105 c-33 -32 -32 -68 1 -94 53 -41 124 -17 124 43 0 68 -77
99 -125 51z m95 -5 c11 -11 20 -30 20 -42 0 -27 -27 -58 -51 -58 -29 0 -68 21
-74 40 -9 29 15 69 44 73 14 2 29 5 34 6 4 0 16 -8 27 -19z"/>
<path d="M3709 2048 c15 -20 46 -24 57 -7 4 8 -1 9 -15 4 -13 -4 -29 -1 -39 7
-15 12 -16 11 -3 -4z"/>
<path d="M3195 2108 c-11 -6 -27 -14 -35 -18 -30 -14 -19 -100 12 -100 6 0 4
8 -5 18 -25 27 -22 69 5 78 13 4 24 2 26 -5 2 -6 8 -11 13 -11 4 0 6 8 2 18
-6 15 -4 15 15 -2 38 -33 26 -76 -23 -89 -12 -4 -9 -5 10 -4 42 3 56 44 30 92
-20 38 -21 39 -50 23z"/>
<path d="M3820 2109 c0 -5 5 -7 10 -4 6 3 10 8 10 11 0 2 -4 4 -10 4 -5 0 -10
-5 -10 -11z"/>
<path d="M3615 2090 c3 -5 14 -10 23 -10 15 0 15 2 2 10 -20 13 -33 13 -25 0z"/>
<path d="M2826 2069 c-27 -14 -42 -17 -49 -10 -15 15 -47 12 -81 -8 -38 -22
-41 -33 -16 -62 l21 -24 -17 28 c-19 31 -15 38 34 57 26 10 35 10 48 -1 9 -8
27 -12 40 -11 20 3 24 -1 24 -21 0 -23 -38 -60 -65 -62 -5 -1 -18 -5 -28 -9
-10 -5 -23 -3 -32 4 -9 8 -15 8 -15 2 0 -16 39 -25 54 -13 8 6 21 9 30 5 10
-4 18 0 22 10 3 9 13 16 20 16 8 0 17 6 20 14 17 45 112 19 135 -36 14 -34 5
-62 -17 -54 -25 9 -64 -20 -64 -48 0 -13 -7 -29 -15 -36 -8 -7 -15 -19 -15
-28 0 -9 8 -4 22 14 13 15 21 38 20 50 -4 28 32 51 52 35 10 -8 17 -7 26 4 16
19 50 19 75 1 10 -7 27 -11 37 -8 10 2 18 0 18 -6 0 -6 12 -10 27 -9 20 1 28
-3 31 -17 2 -11 18 -33 35 -50 20 -21 27 -24 19 -10 -6 11 -18 26 -26 34 -9 7
-16 18 -16 25 0 21 -24 35 -69 39 -55 4 -66 17 -62 69 3 48 -28 103 -69 124
-38 19 -110 16 -154 -8z m154 -2 c33 -16 61 -73 58 -116 -2 -28 -7 -35 -25
-36 -16 -1 -23 4 -23 17 0 10 -13 32 -29 50 -25 29 -35 33 -75 32 -32 -1 -46
3 -46 13 0 9 14 13 44 13 51 0 91 -27 112 -74 7 -17 13 -25 14 -17 0 25 -40
79 -69 91 -16 6 -46 11 -68 10 -56 -3 -61 -1 -33 15 31 18 107 19 140 2z"/>
<path d="M1050 2060 c0 -5 5 -10 11 -10 5 0 7 5 4 10 -3 6 -8 10 -11 10 -2 0
-4 -4 -4 -10z"/>
<path d="M2127 2043 c-6 -30 7 -61 31 -79 8 -6 12 -16 8 -22 -5 -9 0 -9 21 -1
34 13 43 26 43 62 0 35 -32 67 -69 67 -23 0 -30 -5 -34 -27z m53 -13 c0 -5 -5
-10 -11 -10 -5 0 -7 5 -4 10 3 6 8 10 11 10 2 0 4 -4 4 -10z"/>
<path d="M2362 2065 c14 -45 66 -129 84 -137 30 -14 67 -4 101 27 l28 26 -39
-26 c-21 -14 -45 -25 -52 -25 -22 0 -64 22 -64 34 0 6 -14 34 -31 61 -17 28
-29 45 -27 40z"/>
<path d="M2095 2040 c-10 -11 -16 -22 -14 -24 2 -2 12 7 22 20 22 29 17 32 -8
4z"/>
<path d="M271 2034 c0 -11 3 -14 6 -6 3 7 2 16 -1 19 -3 4 -6 -2 -5 -13z"/>
<path d="M939 2032 c5 -10 18 -25 27 -33 11 -9 9 -2 -6 19 -26 35 -36 42 -21
14z"/>
<path d="M1006 2033 c-6 -14 -5 -15 5 -6 7 7 10 15 7 18 -3 3 -9 -2 -12 -12z"/>
<path d="M2470 2040 c0 -5 5 -10 10 -10 6 0 10 5 10 10 0 6 -4 10 -10 10 -5 0
-10 -4 -10 -10z"/>
<path d="M1386 2031 c4 -8 11 -28 15 -45 6 -29 7 -29 8 -5 1 14 -6 34 -15 45
-8 10 -12 13 -8 5z"/>
<path d="M3320 2006 c0 -30 17 -43 33 -26 9 9 7 15 -8 27 -20 15 -20 15 3 10
12 -3 20 -1 16 4 -3 5 -14 9 -25 9 -14 0 -19 -7 -19 -24z m30 -16 c0 -5 -2
-10 -4 -10 -3 0 -8 5 -11 10 -3 6 -1 10 4 10 6 0 11 -4 11 -10z"/>
<path d="M3430 2021 l-55 -7 53 -4 c29 -3 57 -1 62 4 12 12 40 0 40 -19 0 -8
-5 -15 -11 -15 -6 0 -9 7 -5 15 3 8 1 15 -4 15 -15 0 -12 -17 6 -45 9 -14 14
-32 10 -40 -3 -9 3 -29 15 -44 11 -15 23 -46 26 -68 5 -35 2 -43 -22 -61 -33
-26 -75 -29 -75 -6 0 9 -6 14 -12 11 -7 -2 -12 -11 -10 -21 2 -13 -5 -16 -37
-16 -39 0 -53 9 -58 40 -1 8 -5 27 -9 42 -3 15 -2 40 4 56 8 24 7 33 -6 46
-14 13 -14 20 -4 36 7 11 8 20 3 20 -15 0 -24 -41 -12 -53 19 -19 12 -46 -14
-53 -27 -7 -35 -34 -10 -34 20 0 46 -61 33 -77 -18 -23 3 -33 65 -33 136 1
184 31 173 109 -3 25 -14 54 -24 65 -14 16 -18 35 -16 84 3 70 12 66 -106 53z
m-100 -181 c0 -5 -8 -10 -17 -10 -15 0 -16 2 -3 10 19 12 20 12 20 0z"/>
<path d="M2496 2012 c-2 -4 4 -8 15 -8 10 0 19 4 19 8 0 4 -6 8 -14 8 -8 0
-17 -4 -20 -8z"/>
<path d="M3914 2005 c3 -8 -2 -19 -11 -23 -10 -6 -14 -16 -10 -27 10 -24 32
-13 32 16 0 14 6 24 15 24 9 0 15 -9 15 -24 0 -26 19 -39 30 -21 4 7 -5 25
-21 41 -29 31 -60 39 -50 14z m6 -41 c0 -8 -5 -12 -10 -9 -6 4 -8 11 -5 16 9
14 15 11 15 -7z m60 -4 c0 -5 -4 -10 -10 -10 -5 0 -10 5 -10 10 0 6 5 10 10
10 6 0 10 -4 10 -10z"/>
<path d="M1235 2000 c3 -5 8 -10 11 -10 2 0 4 5 4 10 0 6 -5 10 -11 10 -5 0
-7 -4 -4 -10z"/>
<path d="M3635 1989 c-11 -17 1 -21 15 -4 8 9 8 15 2 15 -6 0 -14 -5 -17 -11z"/>
<path d="M1131 1963 c-1 -12 2 -29 5 -37 8 -21 70 -50 90 -42 19 7 47 -11 38
-25 -3 -5 0 -9 5 -9 6 0 11 5 11 11 0 7 13 8 38 4 30 -5 42 -2 53 12 13 16 12
17 -2 5 -20 -15 -93 -6 -110 14 -8 10 -16 11 -31 3 -15 -8 -24 -7 -36 4 -9 8
-22 12 -29 10 -7 -3 -15 8 -19 24 -9 44 -12 50 -13 26z"/>
<path d="M2105 1971 c-3 -5 -1 -12 5 -16 5 -3 10 1 10 9 0 18 -6 21 -15 7z"/>
<path d="M3795 1970 c3 -5 11 -10 16 -10 6 0 7 5 4 10 -3 6 -11 10 -16 10 -6
0 -7 -4 -4 -10z"/>
<path d="M3720 1956 c0 -9 5 -16 10 -16 6 0 10 4 10 9 0 6 -4 13 -10 16 -5 3
-10 -1 -10 -9z"/>
<path d="M2097 1939 c7 -7 15 -10 18 -7 3 3 -2 9 -12 12 -14 6 -15 5 -6 -5z"/>
<path d="M3391 1941 c-17 -11 -7 -41 14 -41 8 0 15 -4 15 -10 0 -5 12 2 27 16
23 21 25 27 13 34 -19 12 -51 12 -69 1z m59 -10 c0 -10 -24 -21 -46 -21 -20 0
-17 18 4 23 29 8 42 7 42 -2z"/>
<path d="M3677 1936 c-3 -8 0 -20 8 -26 10 -8 14 -8 18 2 10 29 -15 52 -26 24z"/>
<path d="M319 1889 c-44 -43 -95 -68 -158 -79 -25 -4 -41 -8 -34 -9 7 0 19
-13 26 -27 9 -17 17 -23 21 -15 4 6 1 11 -6 11 -23 0 14 26 64 44 50 18 134
85 127 101 -2 6 -20 -6 -40 -26z"/>
<path d="M3600 1911 c0 -5 -3 -16 -6 -25 -3 -9 -1 -16 5 -16 6 0 11 9 11 20 0
27 28 25 33 -2 4 -20 4 -19 6 5 1 23 -3 27 -24 27 -14 0 -25 -4 -25 -9z"/>
<path d="M985 1889 c-5 -8 -4 -10 3 -5 7 4 12 1 12 -8 0 -18 -16 -30 -23 -16
-3 6 -4 5 -3 -2 4 -21 24 -20 31 2 8 25 -8 49 -20 29z"/>
<path d="M2624 1844 c-15 -34 -32 -58 -44 -61 -24 -6 -26 -21 -5 -29 18 -7 19
-28 3 -54 -18 -28 4 -50 32 -32 21 13 70 1 70 -18 0 -5 9 -10 20 -10 19 0 24
10 21 38 -1 6 10 17 25 22 26 10 26 11 9 30 -15 17 -16 25 -6 65 17 67 -10
105 -74 105 -22 0 -30 -9 -51 -56z m52 -9 c-5 -18 -2 -25 9 -25 8 0 15 9 15
20 0 22 25 28 32 8 3 -7 2 -40 -1 -73 -5 -53 -9 -61 -33 -73 -23 -11 -32 -10
-57 2 -16 9 -32 25 -36 35 -8 27 40 131 61 131 12 0 15 -6 10 -25z"/>
<path d="M3670 1891 c0 -5 5 -13 10 -16 6 -3 10 -2 10 4 0 5 -4 13 -10 16 -5
3 -10 2 -10 -4z"/>
<path d="M356 1882 c-2 -4 -1 -14 3 -21 6 -9 11 -10 15 -2 4 6 2 11 -4 11 -6
0 -8 5 -5 10 3 6 4 10 1 10 -3 0 -7 -4 -10 -8z"/>
<path d="M3788 1870 c-31 -35 2 -91 52 -87 77 5 73 108 -4 106 -17 0 -39 -9
-48 -19z m78 -5 c32 -31 17 -67 -29 -70 -38 -3 -59 42 -33 71 13 14 47 14 62
-1z"/>
<path d="M3824 1846 c-9 -23 7 -38 26 -26 13 8 13 11 -2 26 -16 17 -18 17 -24
0z"/>
<path d="M1166 1865 c-3 -8 -1 -15 4 -15 6 0 10 7 10 15 0 8 -2 15 -4 15 -2 0
-6 -7 -10 -15z"/>
<path d="M913 1854 c24 -28 22 -41 -3 -19 -17 16 -20 16 -15 3 9 -22 31 -30
43 -15 7 8 2 18 -16 31 -27 20 -27 20 -9 0z"/>
<path d="M3690 1850 c-6 -11 -7 -20 -2 -20 6 0 12 9 15 20 3 11 3 20 1 20 -2
0 -8 -9 -14 -20z"/>
<path d="M2285 1835 c-42 -41 -29 -125 19 -125 33 0 51 23 31 40 -19 16 -19
39 0 64 11 14 12 23 4 33 -16 19 -27 16 -54 -12z m40 -12 c-17 -41 -17 -55 -1
-72 17 -18 16 -20 -4 -26 -27 -9 -50 11 -50 42 0 31 18 65 31 58 5 -4 9 -1 9
4 0 6 5 11 11 11 7 0 8 -7 4 -17z"/>
<path d="M3460 1850 c-8 -5 -10 -10 -5 -10 6 0 17 5 25 10 8 5 11 10 5 10 -5
0 -17 -5 -25 -10z"/>
<path d="M1330 1835 c0 -8 5 -15 10 -15 6 0 10 7 10 15 0 8 -4 15 -10 15 -5 0
-10 -7 -10 -15z"/>
<path d="M3427 1830 c4 -14 14 -20 34 -20 16 0 29 5 29 11 0 7 -10 9 -25 7
-17 -4 -25 -1 -25 8 0 8 -4 14 -9 14 -5 0 -7 -9 -4 -20z"/>
<path d="M3640 1840 c0 -5 5 -10 10 -10 6 0 10 5 10 10 0 6 -4 10 -10 10 -5 0
-10 -4 -10 -10z"/>
<path d="M3955 1830 c-3 -5 -1 -10 4 -10 6 0 11 5 11 10 0 6 -2 10 -4 10 -3 0
-8 -4 -11 -10z"/>
<path d="M2480 1820 c0 -5 5 -10 11 -10 5 0 7 5 4 10 -3 6 -8 10 -11 10 -2 0
-4 -4 -4 -10z"/>
<path d="M1210 1810 c-9 -6 -10 -10 -3 -10 6 0 15 5 18 10 8 12 4 12 -15 0z"/>
<path d="M1287 1800 c-3 -11 -1 -20 4 -20 5 0 9 9 9 20 0 11 -2 20 -4 20 -2 0
-6 -9 -9 -20z"/>
<path d="M2440 1799 c0 -5 5 -7 10 -4 6 3 10 8 10 11 0 2 -4 4 -10 4 -5 0 -10
-5 -10 -11z"/>
<path d="M3657 1790 c-19 -15 -27 -31 -27 -53 0 -24 -3 -28 -12 -19 -20 20
-38 14 -38 -14 0 -19 7 -28 30 -35 36 -13 40 -39 6 -39 -29 0 -42 -16 -28 -33
5 -7 12 -28 16 -48 8 -44 23 -58 69 -66 56 -9 77 9 77 67 0 27 5 52 12 56 8 5
6 11 -6 20 -16 11 -16 14 -1 37 28 43 -11 90 -41 50 -10 -15 -12 -11 -12 30 1
62 -11 74 -45 47z m31 -93 c3 -61 1 -67 -16 -67 -11 0 -22 9 -25 20 -3 11 -17
24 -31 30 -34 12 -34 32 -1 24 22 -6 25 -3 25 23 0 34 8 45 30 41 11 -3 16
-19 18 -71z m62 -4 c0 -10 -9 -29 -20 -43 -17 -22 -19 -23 -25 -7 -8 18 18 67
35 67 6 0 10 -8 10 -17z m-1 -77 c-2 -2 -39 -7 -81 -11 -54 -5 -78 -3 -78 4 0
7 30 11 82 11 45 0 79 -2 77 -4z m-9 -61 c0 -51 -22 -70 -70 -60 -35 8 -48 22
-56 63 -7 33 1 37 89 41 l37 1 0 -45z"/>
<path d="M3910 1790 c0 -5 -7 -10 -15 -10 -8 0 -16 -6 -16 -12 -1 -7 -3 -23
-4 -36 -3 -32 35 -50 70 -34 32 15 33 51 2 80 -25 24 -37 28 -37 12z m34 -26
c9 -8 16 -22 16 -30 0 -16 -38 -34 -57 -27 -18 7 -22 42 -6 58 18 19 28 19 47
-1z"/>
<path d="M3912 1739 c2 -6 8 -10 13 -10 5 0 11 4 13 10 2 6 -4 11 -13 11 -9 0
-15 -5 -13 -11z"/>
<path d="M984 1778 c-4 -7 -3 -8 5 -4 6 4 20 2 29 -6 15 -12 16 -11 3 5 -16
20 -27 22 -37 5z"/>
<path d="M1227 1783 c-4 -3 -7 -13 -7 -22 1 -13 3 -13 11 2 11 19 8 33 -4 20z"/>
<path d="M2350 1779 c0 -5 5 -7 10 -4 6 3 10 8 10 11 0 2 -4 4 -10 4 -5 0 -10
-5 -10 -11z"/>
<path d="M1045 1771 c4 -8 2 -17 -6 -22 -9 -6 -10 -9 -2 -9 19 0 27 21 13 33
-10 9 -11 9 -5 -2z"/>
<path d="M2059 1744 c12 -9 31 -30 42 -48 10 -17 19 -26 19 -19 0 16 -59 83
-73 83 -6 0 -1 -7 12 -16z"/>
<path d="M3206 1744 c-5 -12 -15 -15 -44 -12 -30 4 -40 0 -55 -19 -22 -27 -66
-31 -101 -8 -18 12 -29 13 -51 5 -15 -6 -26 -13 -23 -16 3 -2 16 0 29 5 18 6
30 5 44 -5 28 -21 75 -17 102 8 17 16 34 22 57 20 30 -3 67 20 54 34 -3 3 -8
-3 -12 -12z"/>
<path d="M3765 1750 c-3 -6 1 -13 10 -16 19 -8 30 0 20 15 -8 14 -22 14 -30 1z"/>
<path d="M1829 1733 c-13 -16 -12 -17 4 -4 16 13 21 21 13 21 -2 0 -10 -8 -17
-17z"/>
<path d="M993 1729 c-25 -9 -30 -19 -10 -19 15 0 43 17 37 23 -3 3 -15 1 -27
-4z"/>
<path d="M2860 1732 c0 -12 19 -27 45 -35 l20 -7 -20 15 c-11 8 -26 19 -32 25
-7 6 -13 7 -13 2z"/>
<path d="M3825 1730 c-5 -9 11 -50 19 -50 2 0 6 11 8 24 5 25 -16 44 -27 26z"/>
<path d="M1590 1728 c0 -3 6 -11 14 -17 10 -9 17 -7 27 6 12 16 12 17 -2 6
-12 -10 -18 -10 -27 -1 -7 7 -12 9 -12 6z"/>
<path d="M278 1680 c-24 -16 -53 -40 -64 -52 -10 -13 -12 -18 -4 -12 32 24
115 86 119 90 14 13 -12 0 -51 -26z"/>
<path d="M395 1667 l50 -46 -24 -18 c-14 -10 -39 -26 -55 -35 -42 -24 -24 -22
23 1 65 34 69 46 30 87 -19 20 -43 40 -54 46 -11 6 3 -10 30 -35z"/>
<path d="M1478 1694 c-3 -11 1 -25 9 -32 15 -15 17 -1 4 32 -8 20 -8 20 -13 0z"/>
<path d="M321 1676 c-15 -18 0 -29 26 -19 16 6 17 5 3 -12 -14 -17 -14 -18 7
-6 21 11 22 12 6 31 -21 24 -27 25 -42 6z m24 -6 c-3 -5 -11 -10 -16 -10 -6 0
-7 5 -4 10 3 6 11 10 16 10 6 0 7 -4 4 -10z"/>
<path d="M722 1681 c2 -7 7 -12 11 -12 12 1 9 15 -3 20 -7 2 -11 -2 -8 -8z"/>
<path d="M1573 1670 c-11 -16 -10 -18 2 -14 8 4 15 12 15 20 0 19 -3 18 -17
-6z"/>
<path d="M519 1670 c-15 -9 -14 -17 11 -87 15 -42 32 -79 37 -80 6 -2 33 28
61 67 29 38 48 70 44 70 -4 0 -24 -25 -45 -54 -41 -57 -70 -65 -81 -23 -11 40
-7 57 10 50 13 -5 15 -2 9 18 -11 36 -27 49 -46 39z m61 -150 c0 -5 -5 -10
-11 -10 -5 0 -7 5 -4 10 3 6 8 10 11 10 2 0 4 -4 4 -10z"/>
<path d="M767 1644 c-97 -97 -27 -271 110 -275 69 -2 118 30 153 101 28 55 30
108 7 143 -18 28 -54 36 -73 17 -8 -8 -15 -6 -24 5 -15 18 -41 20 -58 3 -9 -9
-16 -8 -29 4 -34 30 -58 30 -86 2z m83 -16 c20 -21 22 -22 31 -5 13 22 28 22
54 -3 20 -18 23 -19 35 -5 18 21 36 19 54 -7 22 -31 20 -80 -5 -133 -41 -87
-125 -116 -209 -73 -38 20 -47 30 -62 74 -37 113 36 222 102 152z"/>
<path d="M825 1551 c-6 -11 9 -23 19 -14 9 9 7 23 -3 23 -6 0 -12 -4 -16 -9z"/>
<path d="M900 1545 c0 -8 5 -15 10 -15 6 0 10 7 10 15 0 8 -4 15 -10 15 -5 0
-10 -7 -10 -15z"/>
<path d="M800 1513 c0 -20 47 -53 77 -53 31 0 83 33 83 52 0 6 -12 -1 -26 -16
-36 -36 -85 -36 -113 0 -12 15 -21 22 -21 17z"/>
<path d="M1773 1640 c1 -14 -2 -26 -8 -26 -5 -1 -9 2 -7 8 1 5 -2 7 -8 3 -8
-5 -8 -11 0 -20 7 -8 9 -20 5 -27 -4 -7 5 0 20 16 16 16 24 31 18 35 -6 3 -13
13 -16 21 -4 8 -5 4 -4 -10z"/>
<path d="M2121 1644 c0 -11 3 -14 6 -6 3 7 2 16 -1 19 -3 4 -6 -2 -5 -13z"/>
<path d="M3424 1648 c-8 -13 5 -44 25 -62 18 -16 20 -16 41 14 12 17 20 37 17
44 -6 15 -75 18 -83 4z m68 -20 c-8 -31 -24 -39 -43 -22 -29 26 -24 42 14 39
21 -2 31 -8 29 -17z"/>
<path d="M377 1636 c-9 -7 -17 -17 -17 -22 0 -4 5 -3 12 4 17 17 33 15 18 -3
-7 -9 -8 -15 -2 -15 13 0 22 24 14 38 -5 7 -12 6 -25 -2z"/>
<path d="M3865 1632 c-22 -8 -42 -16 -43 -18 -7 -5 32 -64 43 -64 5 0 27 5 48
11 38 10 44 23 28 63 -10 25 -28 27 -76 8z m35 -7 c-7 -8 -22 -16 -34 -16 -17
-1 -18 -2 -3 -6 10 -3 29 2 42 11 22 15 24 14 30 -5 8 -26 -1 -35 -42 -44 -25
-5 -34 -2 -42 14 -16 28 -15 30 22 46 41 18 42 18 27 0z"/>
<path d="M1875 1630 c-3 -6 1 -7 9 -4 18 7 21 14 7 14 -6 0 -13 -4 -16 -10z"/>
<path d="M2072 1609 c-18 -16 -29 -29 -25 -29 12 1 68 49 63 54 -3 2 -20 -9
-38 -25z"/>
<path d="M2179 1623 c-13 -16 -12 -17 4 -4 16 13 21 21 13 21 -2 0 -10 -8 -17
-17z"/>
<path d="M1546 1622 c-2 -4 4 -8 14 -8 10 0 16 4 14 8 -3 4 -9 8 -14 8 -5 0
-11 -4 -14 -8z"/>
<path d="M1435 1596 c17 -14 34 -26 39 -26 11 0 11 0 -34 29 l-35 23 30 -26z"/>
<path d="M1590 1616 c0 -2 7 -7 16 -10 8 -3 12 -2 9 4 -6 10 -25 14 -25 6z"/>
<path d="M1818 1613 c7 -3 16 -2 19 1 4 3 -2 6 -13 5 -11 0 -14 -3 -6 -6z"/>
<path d="M2231 1604 c0 -11 3 -14 6 -6 3 7 2 16 -1 19 -3 4 -6 -2 -5 -13z"/>
<path d="M3011 1603 c-25 -21 -42 -74 -31 -94 6 -11 -3 -20 -35 -35 l-44 -20
-23 35 c-13 20 -34 41 -47 47 -33 17 -78 -1 -97 -38 -15 -28 -14 -34 2 -70 10
-21 30 -46 46 -56 15 -9 28 -23 28 -32 0 -8 3 -25 6 -37 5 -18 -1 -25 -32 -39
-22 -9 -34 -18 -27 -21 6 -2 25 3 42 11 29 16 30 15 44 -13 14 -28 13 -31 -9
-52 -13 -12 -24 -27 -24 -33 0 -5 13 3 29 18 l28 27 18 -27 c14 -22 15 -31 6
-52 -15 -32 -6 -41 10 -10 6 12 13 24 14 26 2 2 21 -2 43 -8 60 -18 144 9 199
64 40 40 44 42 64 29 11 -8 23 -13 26 -10 2 3 -7 13 -21 22 -20 13 -26 26 -26
51 0 33 6 38 48 37 27 -1 10 16 -19 19 -22 2 -34 10 -40 26 -7 19 -4 24 19 34
15 5 22 12 15 15 -7 2 -20 0 -31 -6 -16 -8 -22 -6 -33 16 -7 14 -12 39 -10 56
3 34 -12 70 -48 110 -28 31 -60 35 -90 10z m62 -4 c36 -16 70 -82 62 -119 -4
-19 -1 -37 10 -53 15 -24 15 -25 -16 -36 -18 -6 -29 -14 -26 -17 3 -4 19 -2
36 4 24 8 31 7 35 -5 11 -28 6 -33 -31 -34 l-38 -2 40 -6 c36 -5 40 -9 43 -38
4 -38 2 -39 -39 -17 -17 8 -33 13 -36 10 -3 -3 11 -13 31 -22 20 -10 36 -21
36 -25 0 -16 -82 -79 -117 -88 -48 -14 -99 -14 -123 -1 -16 8 -18 15 -10 35 6
15 6 25 0 25 -5 0 -12 -9 -15 -21 -5 -16 -10 -18 -21 -8 -18 15 -18 33 1 49 8
7 15 17 15 23 0 5 -9 2 -21 -9 -20 -18 -21 -18 -35 1 -14 18 -13 22 8 39 l23
19 -27 -7 c-26 -6 -27 -4 -30 36 -3 36 -7 44 -26 46 -26 4 -62 55 -62 89 0 27
23 51 57 59 21 6 31 1 52 -23 14 -16 31 -38 37 -49 11 -18 13 -18 42 -1 16 9
39 17 49 17 17 0 19 7 19 51 -1 42 3 54 23 70 27 22 24 22 54 8z"/>
<path d="M3052 1564 c-28 -19 -28 -44 -1 -78 24 -31 54 -34 69 -7 12 23 1 58
-27 83 -17 16 -21 16 -41 2z m42 -20 c31 -30 12 -86 -22 -65 -19 12 -32 57
-19 70 15 15 23 14 41 -5z"/>
<path d="M2782 1488 c-28 -28 -3 -88 37 -88 41 0 55 54 23 83 -22 20 -43 22
-60 5z m50 -15 c22 -19 23 -36 4 -52 -30 -25 -71 24 -46 54 16 19 19 19 42 -2z"/>
<path d="M2910 1360 c0 -5 5 -10 10 -10 6 0 10 5 10 10 0 6 -4 10 -10 10 -5 0
-10 -4 -10 -10z"/>
<path d="M3002 1310 c8 -25 28 -51 28 -37 0 15 -24 67 -30 67 -5 0 -4 -14 2
-30z"/>
<path d="M3270 1605 c-17 -20 0 -78 33 -119 l24 -30 32 44 c19 27 31 55 31 75
0 39 -24 53 -50 30 -16 -14 -18 -14 -23 0 -8 19 -31 19 -47 0z"/>
<path d="M150 1600 c-9 -6 -10 -10 -3 -10 6 0 15 5 18 10 8 12 4 12 -15 0z"/>
<path d="M189 1592 c10 -19 8 -26 -14 -48 -14 -14 -21 -24 -14 -22 7 2 22 16
33 31 19 26 19 28 2 45 -18 16 -18 16 -7 -6z"/>
<path d="M1960 1601 c0 -6 4 -13 10 -16 6 -3 7 1 4 9 -7 18 -14 21 -14 7z"/>
<path d="M1531 1586 c-9 -10 -8 -15 2 -19 8 -3 13 3 13 14 0 23 0 23 -15 5z"/>
<path d="M1800 1594 c0 -12 65 -74 78 -74 4 0 -8 12 -25 26 -18 14 -37 33 -43
42 -5 9 -10 12 -10 6z"/>
<path d="M2526 1583 c-6 -14 -5 -15 5 -6 7 7 10 15 7 18 -3 3 -9 -2 -12 -12z"/>
<path d="M2576 1587 c3 -10 9 -15 12 -12 3 3 0 11 -7 18 -10 9 -11 8 -5 -6z"/>
<path d="M92 1578 c-18 -18 -15 -25 31 -70 23 -23 53 -62 67 -87 14 -24 32
-46 40 -49 10 -2 11 -1 4 5 -6 4 -19 23 -29 42 -9 19 -37 56 -62 82 -32 35
-44 54 -40 69 6 23 5 24 -11 8z"/>
<path d="M1605 1581 c-6 -5 -19 -11 -30 -13 -13 -2 -16 -6 -9 -11 7 -4 23 2
35 13 13 11 22 19 19 20 -4 0 -10 -4 -15 -9z"/>
<path d="M2480 1582 c0 -12 19 -26 26 -19 2 2 -2 10 -11 17 -9 8 -15 8 -15 2z"/>
<path d="M1998 1573 c6 -2 18 -2 25 0 6 3 1 5 -13 5 -14 0 -19 -2 -12 -5z"/>
<path d="M1941 1567 c2 -1 15 -11 29 -22 l25 -20 -19 23 c-11 12 -24 22 -29
22 -6 0 -8 -1 -6 -3z"/>
<path d="M2080 1540 c-25 -16 -42 -30 -37 -30 10 0 87 49 87 55 0 7 0 7 -50
-25z"/>
<path d="M2158 1553 c6 -2 18 -2 25 0 6 3 1 5 -13 5 -14 0 -19 -2 -12 -5z"/>
<path d="M1710 1547 c0 -3 5 -17 11 -30 8 -18 8 -30 -1 -47 -17 -32 5 -54 26
-25 9 12 11 21 4 23 -5 2 -10 8 -10 13 0 4 16 -3 36 -16 45 -30 119 -53 197
-62 54 -6 57 -7 55 -32 -4 -38 29 -42 38 -4 4 15 16 39 28 52 l21 24 -22 -12
c-73 -38 -275 14 -350 89 -18 18 -33 30 -33 27z m30 -97 c0 -5 -4 -10 -10 -10
-5 0 -10 5 -10 10 0 6 5 10 10 10 6 0 10 -4 10 -10z m320 -60 c0 -5 -2 -10 -4
-10 -3 0 -8 5 -11 10 -3 6 -1 10 4 10 6 0 11 -4 11 -10z"/>
<path d="M2540 1533 c0 -10 4 -14 8 -8 4 6 11 13 16 18 5 4 2 7 -7 7 -10 0
-17 -8 -17 -17z"/>
<path d="M2356 1505 l-39 -35 24 -35 c52 -75 128 -83 197 -20 l37 33 -27 21
c-15 12 -30 30 -33 41 -8 24 -22 25 -46 4 -16 -14 -19 -14 -38 5 -12 12 -24
21 -28 21 -5 -1 -26 -16 -47 -35z m54 -51 c33 -13 46 -14 66 -5 35 16 44 13
14 -4 -34 -19 -50 -18 -101 5 -53 24 -36 27 21 4z"/>
<path d="M304 1498 c34 -46 38 -85 10 -112 -8 -9 -11 -16 -6 -16 17 0 35 31
35 60 0 28 -40 100 -56 100 -4 0 3 -15 17 -32z"/>
<path d="M3816 1484 c-21 -15 -34 -29 -30 -33 5 -3 18 -16 28 -28 19 -23 19
-23 -7 -23 -19 0 -27 6 -29 23 -3 20 -4 20 -9 -5 -6 -26 -4 -28 25 -28 32 0
126 51 126 68 0 11 -44 52 -56 52 -5 0 -27 -12 -48 -26z m76 -6 c21 -21 21
-21 2 -35 -24 -18 -61 -38 -52 -28 5 5 -2 13 -14 19 -31 16 -32 29 0 48 36 22
39 21 64 -4z"/>
<path d="M3844 1475 c-15 -12 -16 -14 -2 -9 13 4 16 1 13 -15 -3 -18 -1 -20
16 -11 22 12 26 22 4 14 -10 -4 -13 0 -10 15 5 25 4 25 -21 6z"/>
<path d="M3453 1475 c-18 -15 -33 -30 -33 -35 0 -5 15 5 33 21 28 26 37 29 72
23 49 -7 69 -28 52 -55 -12 -20 -5 -35 13 -24 6 4 9 13 6 21 -3 8 -1 14 4 14
13 0 13 -37 0 -45 -5 -3 -10 -20 -10 -36 0 -21 -6 -32 -22 -39 -23 -10 -23
-10 2 -7 20 1 26 8 28 32 2 17 8 34 13 40 32 33 -20 100 -86 110 -33 5 -45 2
-72 -20z"/>
<path d="M1365 1479 c-11 -5 -46 -18 -78 -30 -84 -30 -117 -61 -117 -110 0
-22 7 -53 15 -68 13 -26 13 -30 0 -41 -8 -7 -15 -19 -15 -27 0 -11 6 -8 18 8
18 21 20 22 43 6 29 -21 68 -22 95 -3 25 18 50 94 63 191 11 75 7 88 -24 74z
m11 -69 c-9 -76 -32 -155 -52 -175 -20 -19 -78 -20 -94 0 -17 21 31 86 59 78
10 -3 22 0 25 6 4 6 0 11 -8 11 -22 0 -20 13 4 35 16 15 17 19 5 31 -19 20
-25 18 -25 -8 0 -13 -9 -34 -20 -48 -16 -21 -22 -22 -29 -11 -7 11 -10 6 -13
-19 -5 -49 -25 -49 -38 1 -11 40 -10 43 17 70 21 21 138 81 172 88 2 1 1 -26
-3 -59z"/>
<path d="M3475 1461 c-8 -15 3 -31 21 -31 9 0 14 7 12 17 -4 20 -24 28 -33 14z
m25 -11 c0 -5 -4 -10 -10 -10 -5 0 -10 5 -10 10 0 6 5 10 10 10 6 0 10 -4 10
-10z"/>
<path d="M3530 1460 c0 -6 4 -9 9 -5 5 3 12 1 15 -4 4 -5 -1 -12 -9 -14 -11
-4 -10 -4 2 -3 23 2 23 30 1 34 -10 2 -18 -2 -18 -8z"/>
<path d="M475 1398 c-45 -53 -53 -83 -30 -108 14 -15 22 -17 37 -9 23 12 48
-4 48 -30 0 -22 19 -41 41 -41 12 0 28 22 49 65 17 36 35 63 41 60 5 -4 9 -1
9 4 0 30 -48 -18 -63 -64 -2 -6 -11 -4 -20 4 -12 9 -21 10 -30 3 -17 -14 -51
12 -52 40 0 13 -10 27 -22 33 l-23 12 34 36 c19 20 30 37 26 37 -5 0 -25 -19
-45 -42z m15 -73 c0 -28 -25 -44 -42 -27 -7 7 -6 17 1 31 16 30 41 27 41 -4z
m100 -76 c0 -23 -27 -36 -42 -21 -14 14 8 53 27 46 8 -4 15 -15 15 -25z"/>
<path d="M230 1420 c-18 -12 -2 -12 25 0 13 6 15 9 5 9 -8 0 -22 -4 -30 -9z"/>
<path d="M3432 1418 c-14 -18 0 -90 18 -96 12 -4 13 -2 4 9 -6 8 -14 28 -17
45 -5 28 -4 31 13 27 10 -3 20 -13 23 -24 3 -10 11 -19 19 -19 10 0 9 3 -2 10
-13 9 -12 13 5 26 20 16 20 16 -2 11 -16 -3 -23 -1 -23 9 0 17 -24 18 -38 2z"/>
<path d="M1035 1410 c-4 -6 -1 -9 6 -8 6 2 14 -3 17 -11 3 -10 0 -12 -12 -8
-9 4 -16 2 -16 -3 0 -14 24 -12 38 2 8 8 9 15 1 25 -14 16 -26 17 -34 3z"/>
<path d="M3546 1395 c16 -13 17 -16 4 -25 -9 -6 -10 -10 -3 -10 6 0 15 5 18
10 8 12 -12 40 -28 40 -6 0 -2 -7 9 -15z"/>
<path d="M757 1373 c-15 -14 -6 -51 17 -72 27 -25 53 -25 70 1 9 14 6 23 -14
42 -27 26 -62 40 -73 29z m66 -35 c20 -24 18 -42 -7 -46 -24 -5 -56 26 -56 55
0 21 4 23 23 18 12 -4 30 -16 40 -27z"/>
<path d="M967 1350 c-3 -11 2 -27 10 -37 12 -15 14 -15 10 -2 -3 9 -2 20 3 25
5 5 2 14 -5 21 -10 9 -14 8 -18 -7z"/>
<path d="M100 1343 c14 -3 28 -10 32 -17 5 -7 8 -5 8 7 0 13 -8 17 -32 16 -28
-2 -29 -2 -8 -6z"/>
<path d="M1817 1335 c-12 -11 -13 -23 -6 -52 5 -21 6 -59 3 -84 -4 -30 -2 -49
5 -53 8 -5 5 -13 -9 -24 -11 -9 -21 -28 -22 -42 -4 -33 49 -60 118 -60 67 0
78 21 34 61 -30 28 -39 49 -20 49 14 0 41 56 34 73 -3 10 6 22 25 33 37 22 44
37 28 59 -16 20 -40 12 -57 -20 -11 -20 -18 -23 -44 -18 -39 7 -39 7 -38 40 0
28 -13 53 -29 53 -4 0 -14 -7 -22 -15z m36 -30 c-1 -16 -5 -36 -8 -44 -5 -13
-7 -14 -15 -1 -11 18 -13 64 -3 74 14 14 28 -2 26 -29z m151 -36 c-3 -5 -19
-16 -35 -24 -23 -13 -29 -22 -27 -45 3 -37 -27 -70 -63 -70 -53 0 -76 51 -43
98 16 23 53 29 83 13 13 -7 22 -2 40 25 19 27 27 32 37 23 8 -6 11 -15 8 -20z
m-106 -155 c18 -5 16 -84 -2 -84 -8 0 -17 6 -19 13 -4 9 -8 8 -16 -3 -8 -12
-11 -12 -17 3 -4 11 -13 16 -24 12 -25 -8 -33 10 -19 37 20 38 35 41 97 22z
m52 -64 c0 -11 -7 -20 -15 -20 -8 0 -15 9 -15 20 0 11 7 20 15 20 8 0 15 -9
15 -20z"/>
<path d="M2195 1330 c3 -5 8 -10 11 -10 2 0 4 5 4 10 0 6 -5 10 -11 10 -5 0
-7 -4 -4 -10z"/>
<path d="M91 1323 c0 -4 4 -17 9 -28 8 -19 9 -19 9 2 1 12 -3 25 -9 28 -5 3
-10 3 -9 -2z"/>
<path d="M1020 1319 c0 -5 5 -7 10 -4 6 3 10 8 10 11 0 2 -4 4 -10 4 -5 0 -10
-5 -10 -11z"/>
<path d="M1460 1292 c-50 -49 -62 -95 -50 -187 16 -123 57 -213 111 -241 29
-14 32 -14 50 2 10 9 19 23 19 31 0 16 12 17 27 2 16 -16 42 -4 53 26 8 22 13
24 30 15 27 -15 60 4 60 34 0 13 -9 35 -20 49 -11 14 -30 56 -41 94 -62 201
-149 265 -239 175z m115 22 c29 -11 74 -91 106 -184 17 -51 39 -102 50 -114
11 -11 18 -30 17 -41 -3 -17 -10 -20 -41 -18 -34 2 -39 -1 -49 -27 -11 -34
-16 -36 -45 -15 -20 14 -23 14 -35 -12 -18 -38 -43 -40 -76 -6 -50 49 -76 134
-77 245 0 94 1 98 30 128 42 45 81 59 120 44z"/>
<path d="M1540 1211 c0 -45 43 -80 56 -46 10 24 -16 75 -37 75 -14 0 -19 -7
-19 -29z"/>
<path d="M1454 1176 c-7 -43 0 -66 20 -66 31 0 35 92 4 98 -12 2 -19 -6 -24
-32z"/>
<path d="M2634 1315 c-3 -8 3 -31 15 -50 20 -34 20 -35 1 -45 -11 -6 -20 -17
-20 -25 0 -24 -36 -37 -60 -23 -16 10 -24 10 -39 1 -18 -11 -21 -9 -31 23 -7
19 -14 33 -17 30 -9 -9 39 -115 55 -121 24 -9 51 4 54 28 3 19 9 22 52 22 70
0 77 17 32 84 -24 35 -34 60 -31 72 7 22 -3 26 -11 4z m60 -121 c8 -20 -1 -34
-19 -34 -16 0 -38 34 -28 44 12 12 41 6 47 -10z m-119 -54 c0 -16 -6 -26 -18
-28 -19 -4 -32 20 -23 44 9 25 41 13 41 -16z"/>
<path d="M150 1300 c0 -22 5 -23 35 -9 18 9 18 9 -3 5 -17 -3 -22 -1 -18 10 3
8 1 14 -4 14 -6 0 -10 -9 -10 -20z"/>
<path d="M3490 1310 c34 -11 60 -11 35 0 -11 5 -29 8 -40 8 -16 0 -15 -2 5 -8z"/>
<path d="M3707 1281 c-44 -49 -57 -112 -33 -159 17 -34 50 -56 69 -48 7 2 5 5
-5 5 -24 1 -68 59 -68 90 0 38 41 114 68 126 12 5 22 13 22 17 0 18 -20 6 -53
-31z"/>
<path d="M2330 1306 c0 -2 8 -10 18 -17 15 -13 16 -12 3 4 -13 16 -21 21 -21
13z"/>
<path d="M25 1290 c-4 -7 3 -8 21 -4 23 6 26 4 21 -10 -4 -9 -2 -16 3 -16 6 0
10 9 10 20 0 15 -7 20 -24 20 -14 0 -28 -5 -31 -10z"/>
<path d="M2118 1293 c7 -3 16 -2 19 1 4 3 -2 6 -13 5 -11 0 -14 -3 -6 -6z"/>
<path d="M111 1257 c-1 -14 4 -17 22 -12 12 4 27 12 32 17 6 5 -1 5 -17 -1
-19 -7 -28 -7 -32 2 -2 7 -5 4 -5 -6z"/>
<path d="M258 1259 c-19 -11 -25 -64 -8 -74 15 -9 12 -19 -9 -32 -16 -10 -26
-9 -51 3 -28 14 -33 14 -55 0 -14 -9 -25 -20 -25 -24 0 -13 35 -60 64 -87 22
-20 25 -29 17 -39 -9 -11 -8 -14 6 -12 14 1 18 -6 16 -28 -2 -26 -1 -27 11
-10 12 15 16 16 30 5 9 -7 16 -21 16 -30 1 -14 2 -14 11 2 5 9 19 17 31 17 32
0 85 38 100 70 8 18 21 30 33 31 20 1 20 1 0 6 -32 8 -48 43 -20 43 8 0 15 4
15 9 0 5 -9 7 -20 4 -28 -7 -38 24 -14 42 11 8 14 15 9 15 -6 0 -17 -6 -24
-12 -10 -11 -17 -7 -37 15 -16 19 -24 23 -24 13 0 -8 9 -20 21 -26 16 -9 18
-14 8 -26 -10 -12 -9 -13 4 -8 11 4 21 -4 31 -24 15 -28 14 -31 -2 -35 -16 -4
-16 -5 1 -6 49 -3 -17 -88 -77 -98 -36 -6 -38 -5 -31 17 5 15 4 20 -4 16 -6
-4 -11 -14 -11 -23 0 -12 -3 -13 -15 -3 -11 9 -12 17 -4 34 10 20 10 20 -5 2
-21 -26 -34 -11 -17 17 11 18 11 20 0 10 -17 -17 -29 -16 -29 2 0 8 -5 15 -10
15 -6 0 -6 7 1 19 21 33 -17 79 -43 53 -8 -8 -5 -9 10 -5 23 6 42 -21 26 -37
-13 -13 -56 26 -52 47 4 23 50 29 70 10 12 -12 18 -11 43 9 23 19 27 26 17 36
-19 19 -14 56 10 69 19 10 25 8 45 -15 13 -15 23 -22 23 -17 0 15 -37 51 -52
51 -7 0 -21 -5 -30 -11z"/>
<path d="M870 1260 c-8 -5 -12 -12 -9 -15 4 -3 12 1 19 10 14 17 11 19 -10 5z"/>
<path d="M2136 1254 c-5 -14 -4 -15 9 -4 17 14 19 20 6 20 -5 0 -12 -7 -15
-16z"/>
<path d="M2170 1266 c0 -2 8 -10 18 -17 15 -13 16 -12 3 4 -13 16 -21 21 -21
13z"/>
<path d="M2230 1266 c0 -2 8 -10 18 -17 15 -13 16 -12 3 4 -13 16 -21 21 -21
13z"/>
<path d="M2330 1249 c-10 -17 -14 -18 -28 -7 -15 12 -16 11 -3 -4 7 -10 17
-15 22 -12 11 6 32 44 25 44 -3 0 -10 -9 -16 -21z"/>
<path d="M2475 1250 c-3 -5 -1 -10 4 -10 6 0 11 5 11 10 0 6 -2 10 -4 10 -3 0
-8 -4 -11 -10z"/>
<path d="M3740 1231 c4 -16 6 -32 4 -34 -3 -2 12 -33 32 -68 43 -75 43 -74 49
-67 3 2 -6 20 -20 38 -14 19 -25 37 -25 41 0 13 32 19 51 9 16 -9 19 -7 19 13
0 12 6 29 12 35 10 10 8 14 -9 18 -12 3 -24 13 -27 21 -5 12 -10 11 -32 -6
-33 -26 -44 -26 -44 -2 0 11 -4 22 -9 26 -6 3 -6 -6 -1 -24z m83 -19 c-2 -6 3
-9 11 -6 10 4 12 -2 9 -19 -4 -20 -10 -24 -41 -23 -43 1 -60 33 -23 43 12 3
21 10 21 15 0 5 6 8 13 5 6 -2 11 -9 10 -15z"/>
<path d="M72 1228 c2 -6 10 -14 16 -16 7 -2 10 2 6 12 -7 18 -28 22 -22 4z"/>
<path d="M264 1225 c-4 -8 -1 -22 6 -30 18 -21 50 -19 50 3 0 36 -45 57 -56
27z m44 -18 c2 -10 -3 -17 -12 -17 -18 0 -29 16 -21 31 9 14 29 6 33 -14z"/>
<path d="M3540 1205 c9 -11 8 -20 -8 -43 l-21 -28 34 -27 c45 -36 60 -34 16 2
-30 25 -32 30 -22 50 10 18 15 20 27 10 9 -7 13 -21 11 -31 -3 -10 -1 -16 4
-12 16 9 9 38 -16 67 -24 27 -48 39 -25 12z"/>
<path d="M2221 1166 l-24 -31 28 27 c16 15 27 29 24 31 -2 3 -15 -10 -28 -27z"/>
<path d="M2281 1184 c0 -11 3 -14 6 -6 3 7 2 16 -1 19 -3 4 -6 -2 -5 -13z"/>
<path d="M3332 1188 c-15 -15 -15 -28 0 -28 6 0 8 3 5 7 -4 3 -2 12 4 20 14
16 7 17 -9 1z"/>
<path d="M3375 1190 c-3 -5 -1 -10 4 -10 6 0 11 5 11 10 0 6 -2 10 -4 10 -3 0
-8 -4 -11 -10z"/>
<path d="M3700 1190 c0 -5 5 -10 10 -10 6 0 10 5 10 10 0 6 -4 10 -10 10 -5 0
-10 -4 -10 -10z"/>
<path d="M2160 1161 c5 -11 15 -23 21 -27 6 -3 3 5 -6 20 -20 30 -30 35 -15 7z"/>
<path d="M564 1138 l-19 -23 25 20 c14 11 27 21 29 22 2 2 0 3 -6 3 -5 0 -18
-10 -29 -22z"/>
<path d="M647 1150 c12 -5 26 -17 32 -27 6 -10 11 -13 11 -6 0 17 -29 43 -48
42 -13 0 -11 -3 5 -9z"/>
<path d="M3550 1145 c0 -8 2 -15 4 -15 2 0 6 7 10 15 3 8 1 15 -4 15 -6 0 -10
-7 -10 -15z"/>
<path d="M3718 1153 c7 -3 16 -2 19 1 4 3 -2 6 -13 5 -11 0 -14 -3 -6 -6z"/>
<path d="M3294 1139 c-3 -6 -1 -16 4 -21 8 -8 11 -5 9 11 -1 24 -3 25 -13 10z"/>
<path d="M365 1100 c-3 -5 -1 -10 4 -10 6 0 11 5 11 10 0 6 -2 10 -4 10 -3 0
-8 -4 -11 -10z"/>
<path d="M946 1097 c3 -10 9 -15 12 -12 3 3 0 11 -7 18 -10 9 -11 8 -5 -6z"/>
<path d="M3369 1083 l-24 -28 28 24 c25 23 32 31 24 31 -2 0 -14 -12 -28 -27z"/>
<path d="M585 1070 c-15 -16 -33 -27 -39 -24 -6 3 0 -4 13 -15 13 -12 31 -21
40 -21 9 1 4 6 -12 13 l-29 12 24 21 c13 12 30 23 38 26 9 3 10 7 4 11 -6 3
-24 -7 -39 -23z"/>
<path d="M1011 1086 c-9 -10 -9 -16 -1 -21 6 -4 14 -4 17 -1 4 3 0 6 -8 6 -12
0 -12 2 1 10 8 5 12 12 9 15 -4 3 -12 -1 -18 -9z"/>
<path d="M890 1086 c0 -2 8 -10 18 -17 15 -13 16 -12 3 4 -13 16 -21 21 -21
13z"/>
<path d="M3529 1073 c-13 -16 -12 -17 4 -4 16 13 21 21 13 21 -2 0 -10 -8 -17
-17z"/>
<path d="M290 1072 c0 -12 19 -26 26 -19 2 2 -2 10 -11 17 -9 8 -15 8 -15 2z"/>
<path d="M853 1068 c-8 -9 -2 -20 18 -36 34 -27 40 -19 7 9 -20 16 -21 20 -8
29 8 5 10 10 4 10 -6 0 -16 -6 -21 -12z"/>
<path d="M2762 1063 c2 -10 10 -18 18 -18 22 0 18 29 -3 33 -14 3 -18 -1 -15
-15z m28 3 c0 -3 -4 -8 -10 -11 -5 -3 -10 -1 -10 4 0 6 5 11 10 11 6 0 10 -2
10 -4z"/>
<path d="M631 1065 c-1 -5 4 -17 9 -25 7 -11 5 -17 -8 -22 -15 -6 -14 -7 3 -7
11 0 29 12 39 27 18 26 18 26 0 9 -17 -16 -19 -16 -31 5 -7 13 -12 19 -12 13z"/>
<path d="M3768 1063 c6 -2 18 -2 25 0 6 3 1 5 -13 5 -14 0 -19 -2 -12 -5z"/>
<path d="M925 1040 c3 -5 8 -10 11 -10 2 0 4 5 4 10 0 6 -5 10 -11 10 -5 0 -7
-4 -4 -10z"/>
<path d="M2815 1041 c-7 -12 12 -24 25 -16 11 7 4 25 -10 25 -5 0 -11 -4 -15
-9z"/>
<path d="M2080 1019 c-37 -23 -51 -38 -72 -79 -7 -14 -23 -38 -35 -53 -32 -39
-33 -127 -2 -158 11 -11 23 -18 26 -16 2 3 -5 15 -16 26 -31 31 -28 92 7 148
15 24 36 58 47 76 39 62 142 89 180 47 10 -11 23 -20 29 -20 6 0 26 -18 44
-40 30 -37 33 -44 28 -93 -3 -29 -8 -61 -11 -69 -7 -17 -59 -41 -69 -31 -3 3
-19 0 -35 -6 -22 -10 -34 -10 -50 -2 -17 10 -26 8 -50 -10 -24 -18 -32 -19
-51 -9 -17 9 -25 9 -34 0 -8 -8 -7 -10 5 -5 10 4 20 2 24 -4 10 -16 34 -13 64
8 22 16 29 17 43 7 11 -8 15 -20 12 -33 -7 -24 13 -40 29 -24 9 9 9 16 0 30
-14 23 2 33 55 36 45 3 74 34 79 87 8 78 5 92 -20 113 -13 11 -27 28 -30 38
-4 9 -13 17 -20 17 -8 0 -22 9 -32 20 -25 28 -98 27 -145 -1z m110 -318 c0 -6
-4 -13 -10 -16 -5 -3 -10 1 -10 9 0 9 5 16 10 16 6 0 10 -4 10 -9z"/>
<path d="M3379 1023 c-11 -15 -11 -16 1 -6 11 10 16 9 27 -5 13 -15 13 -15 3
6 -13 27 -14 27 -31 5z"/>
<path d="M2488 1016 c-10 -7 -18 -17 -18 -21 0 -4 7 -2 15 5 13 11 15 10 14
-6 -4 -37 1 -84 9 -84 4 0 16 13 26 28 l20 27 -22 -19 c-22 -19 -22 -19 -24 5
0 13 0 36 1 52 3 31 2 31 -21 13z"/>
<path d="M2744 1019 c-10 -17 13 -36 27 -22 12 12 4 33 -11 33 -5 0 -12 -5
-16 -11z"/>
<path d="M3078 1011 c3 -9 1 -12 -6 -7 -21 13 -13 -10 11 -32 31 -29 84 -45
94 -29 10 16 11 57 1 51 -4 -3 -8 2 -8 10 0 18 -27 27 -68 24 -21 -1 -28 -6
-24 -17z m69 -12 c6 -6 9 -18 6 -25 -4 -10 0 -12 12 -8 12 5 16 3 14 -5 -5
-15 -9 -15 -59 5 -33 13 -38 19 -29 30 14 17 41 18 56 3z"/>
<path d="M3110 992 c0 -5 7 -13 16 -16 10 -4 14 -1 12 6 -5 15 -28 23 -28 10z"/>
<path d="M3454 1018 c-4 -6 -3 -8 3 -5 6 4 14 0 17 -9 4 -9 9 -15 11 -12 8 7
-5 38 -15 38 -5 0 -12 -5 -16 -12z"/>
<path d="M855 1010 c-3 -5 -1 -10 4 -10 6 0 11 5 11 10 0 6 -2 10 -4 10 -3 0
-8 -4 -11 -10z"/>
<path d="M2527 1004 c2 -7 11 -10 19 -7 19 7 18 10 -5 16 -13 3 -18 1 -14 -9z"/>
<path d="M3444 985 c-3 -8 -4 -20 -2 -27 3 -7 7 -1 10 15 6 29 1 36 -8 12z"/>
<path d="M2580 986 c0 -3 9 -10 20 -16 11 -6 20 -8 20 -6 0 3 -9 10 -20 16
-11 6 -20 8 -20 6z"/>
<path d="M3665 976 c-48 -21 -68 -51 -73 -109 -9 -109 44 -167 155 -167 82 0
108 12 133 59 39 78 14 183 -53 214 -42 20 -120 21 -162 3z m152 -13 c38 -18
63 -57 46 -74 -16 -16 -41 0 -48 32 -4 16 -11 29 -16 29 -5 0 -3 -12 3 -26 9
-20 9 -27 -1 -33 -15 -9 -49 -3 -69 12 -15 12 0 34 33 47 19 8 19 9 -2 9 -13
1 -23 6 -23 11 0 15 38 12 77 -7z m-178 -47 c-13 -19 -25 -33 -27 -31 -7 6 9
45 25 60 26 26 27 8 2 -29z m72 -6 c18 -10 18 -12 3 -36 -15 -22 -15 -26 -1
-42 22 -24 11 -59 -21 -67 -19 -5 -30 -2 -39 11 -22 30 -13 58 22 67 19 4 19
5 -1 6 -32 2 -48 25 -34 50 12 23 40 27 71 11z m140 -60 l7 -25 1 28 c1 31 20
37 23 7 0 -11 1 -26 2 -32 1 -7 -4 -13 -11 -13 -7 0 -17 -5 -24 -12 -9 -9 -17
-8 -35 4 -23 15 -32 52 -17 67 15 15 47 0 54 -24z m-35 -61 c18 -20 18 -21 -1
-35 -21 -15 -63 -18 -83 -6 -9 7 -10 15 -3 35 13 34 59 37 87 6z m-176 -8 c17
-33 11 -48 -10 -22 -11 13 -20 27 -20 32 0 16 19 9 30 -10z m190 -50 c0 -11
-25 -21 -56 -21 -33 0 -30 18 4 23 48 7 52 7 52 -2z"/>
<path d="M3373 953 c1 -19 -4 -28 -18 -32 -28 -8 -85 -52 -85 -66 0 -7 9 -20
21 -31 16 -14 36 -18 89 -19 53 0 66 3 58 12 -6 7 -15 10 -21 6 -25 -15 -93
-10 -117 9 l-23 19 23 24 c13 14 41 30 61 35 37 10 37 11 27 40 -12 37 -17 38
-15 3z"/>
<path d="M1120 955 c-7 -9 -11 -17 -9 -20 3 -2 10 5 17 15 14 24 10 26 -8 5z"/>
<path d="M3462 944 c-10 -20 -9 -30 3 -47 8 -12 15 -17 15 -11 0 5 -5 15 -11
21 -8 8 -8 17 1 33 6 12 10 24 7 26 -2 2 -9 -7 -15 -22z"/>
<path d="M91 939 c-16 -17 -17 -25 -8 -40 6 -10 20 -20 32 -23 19 -4 18 -3 -2
11 -13 8 -23 22 -23 29 0 20 9 17 31 -8 l20 -23 -16 27 c-9 15 -14 32 -10 38
11 17 -3 11 -24 -11z"/>
<path d="M2460 940 c0 -5 5 -10 10 -10 6 0 10 5 10 10 0 6 -4 10 -10 10 -5 0
-10 -4 -10 -10z"/>
<path d="M2600 941 c0 -6 4 -11 9 -11 5 0 12 -10 14 -22 4 -22 4 -22 6 -2 0
12 -6 27 -14 34 -10 9 -15 9 -15 1z"/>
<path d="M3420 930 c-13 -8 -12 -10 3 -10 9 0 17 5 17 10 0 12 -1 12 -20 0z"/>
<path d="M542 893 c-37 -36 -82 -131 -82 -171 1 -9 9 6 19 35 53 145 117 189
190 127 44 -37 49 -78 21 -212 -15 -75 -20 -116 -13 -123 6 -6 14 -5 23 6 11
13 10 14 -5 8 -15 -5 -17 -3 -12 11 4 10 10 35 13 56 5 30 12 40 30 44 17 5
24 13 24 30 0 14 3 32 7 42 5 13 3 15 -8 9 -11 -6 -12 -5 -2 5 7 8 15 11 19 8
8 -8 -24 -166 -41 -200 -9 -19 -10 -30 -3 -34 13 -8 28 15 28 45 0 13 7 51 16
85 21 80 15 177 -11 207 -28 30 -93 59 -137 59 -29 0 -45 -8 -76 -37z m197
-26 c8 -10 9 -17 2 -22 -7 -4 -5 -15 6 -31 15 -23 15 -26 -3 -39 -17 -12 -19
-12 -23 3 -2 9 2 18 8 20 8 3 8 9 0 23 -5 11 -7 25 -3 31 4 6 3 8 -3 5 -5 -3
-20 7 -32 24 l-23 30 29 -15 c16 -8 35 -21 42 -29z m-12 -139 c-3 -8 -6 -5 -6
6 -1 11 2 17 5 13 3 -3 4 -12 1 -19z m5 -40 c-6 -6 -15 -8 -19 -4 -4 4 -1 11
7 16 19 12 27 3 12 -12z"/>
<path d="M2566 914 c-11 -7 -18 -16 -15 -18 2 -2 13 2 23 10 11 7 18 16 15 18
-2 2 -13 -2 -23 -10z"/>
<path d="M2784 892 c-97 -63 -97 -60 -12 -147 51 -52 78 -90 90 -123 10 -30
23 -48 35 -50 16 -3 17 -3 2 10 -9 7 -22 28 -28 47 -14 42 -14 39 4 44 12 4
12 5 -1 3 -17 -1 -123 91 -148 129 -14 22 -13 24 42 62 31 22 65 42 74 46 25
9 61 -25 97 -92 18 -34 36 -61 40 -61 5 0 26 7 47 17 22 9 55 19 74 23 32 7
33 8 7 9 -16 0 -51 -9 -78 -20 -27 -12 -51 -20 -52 -18 -1 2 -13 24 -26 49
-27 50 -79 110 -96 110 -7 0 -38 -17 -71 -38z"/>
<path d="M1074 909 c-3 -6 -2 -15 3 -20 5 -5 9 -1 9 11 0 23 -2 24 -12 9z"/>
<path d="M1128 908 c8 -8 7 -15 -6 -25 -15 -13 -15 -13 4 -4 16 8 30 7 53 -5
17 -9 29 -20 26 -25 -4 -5 0 -6 8 -3 20 7 31 -14 17 -31 -7 -8 -9 -15 -5 -15
4 0 13 7 19 15 8 10 16 12 26 5 12 -8 13 -13 3 -30 -20 -30 -15 -38 6 -10 16
20 22 22 35 11 14 -11 14 -16 1 -40 -13 -27 -13 -28 21 -44 52 -25 92 -22 100
7 8 32 -2 59 -34 97 l-26 32 -22 -29 c-19 -24 -25 -26 -39 -14 -14 12 -14 15
0 30 8 9 15 21 15 26 -1 5 -9 -1 -19 -14 -24 -28 -55 -20 -45 12 6 21 6 21
-10 1 -16 -20 -16 -20 -22 2 -4 13 -11 20 -20 16 -8 -3 -16 2 -20 10 -3 9 -12
13 -20 10 -8 -3 -14 -1 -14 5 0 5 -10 12 -21 15 -16 4 -19 3 -11 -5z m280
-127 c26 -46 28 -69 6 -78 -16 -6 -94 13 -94 24 0 12 51 93 59 93 4 0 17 -17
29 -39z"/>
<path d="M1363 754 c-6 -17 15 -37 29 -28 13 9 9 32 -7 38 -9 3 -18 -1 -22
-10z"/>
<path d="M2445 900 c-3 -6 1 -7 9 -4 18 7 21 14 7 14 -6 0 -13 -4 -16 -10z"/>
<path d="M55 890 c3 -5 11 -10 16 -10 6 0 7 5 4 10 -3 6 -11 10 -16 10 -6 0
-7 -4 -4 -10z"/>
<path d="M2055 890 c-3 -5 -1 -10 4 -10 6 0 11 5 11 10 0 6 -2 10 -4 10 -3 0
-8 -4 -11 -10z"/>
<path d="M2100 890 c0 -5 5 -10 10 -10 6 0 10 5 10 10 0 6 -4 10 -10 10 -5 0
-10 -4 -10 -10z"/>
<path d="M3400 893 c0 -19 21 -27 33 -13 9 10 9 11 -2 5 -8 -4 -17 -2 -22 6
-6 9 -9 10 -9 2z"/>
<path d="M1710 859 c0 -25 -5 -39 -17 -43 -17 -7 -33 9 -33 32 0 7 -4 11 -10
7 -5 -3 -6 -15 0 -29 6 -17 4 -28 -8 -40 -14 -14 -15 -19 -3 -38 10 -16 10
-23 2 -26 -20 -7 -12 -22 12 -19 17 1 22 -3 21 -20 -1 -24 12 -31 18 -11 3 7
12 6 30 -6 16 -10 25 -23 21 -32 -3 -8 0 -14 6 -14 6 0 11 7 11 15 0 19 53 42
58 26 2 -6 8 -11 14 -11 6 0 7 7 4 16 -4 10 3 23 19 36 21 16 23 23 14 40 -8
16 -8 22 2 29 7 4 10 11 6 15 -4 4 -12 3 -18 -3 -17 -17 -71 25 -63 49 3 10 1
18 -5 18 -6 0 -11 -9 -11 -21 0 -15 -4 -19 -16 -15 -9 3 -20 6 -25 6 -5 0 -9
10 -9 23 0 12 -5 29 -10 37 -7 11 -10 6 -10 -21z m60 -59 c60 -17 64 -22 46
-64 -11 -28 -21 -36 -40 -36 -30 0 -59 27 -52 47 3 8 6 17 6 19 0 2 5 4 10 4
6 0 10 -9 10 -20 0 -32 30 -37 51 -9 24 32 10 39 -76 42 -36 1 -65 3 -65 5 0
5 44 21 60 21 8 1 31 -4 50 -9z m-60 -59 c0 -32 15 -48 57 -61 l28 -8 -33 -1
c-25 -1 -43 9 -77 40 -25 23 -45 45 -45 50 0 5 16 9 35 9 32 0 35 -3 35 -29z
m145 -1 c8 -12 -10 -37 -35 -50 -16 -9 -16 -7 -1 25 17 36 26 42 36 25z"/>
<path d="M2850 875 c7 -8 17 -15 22 -15 6 0 5 7 -2 15 -7 8 -17 15 -22 15 -6
0 -5 -7 2 -15z"/>
<path d="M2652 866 c7 -8 16 -12 21 -9 11 7 -2 23 -19 23 -12 0 -12 -2 -2 -14z"/>
<path d="M2820 873 c0 -13 29 -38 35 -31 3 3 -4 13 -15 23 -11 10 -20 13 -20
8z"/>
<path d="M68 848 c3 -15 6 -15 18 -3 18 18 18 21 -5 21 -12 0 -17 -6 -13 -18z"/>
<path d="M2076 862 c-3 -6 3 -12 15 -15 12 -3 19 -1 16 6 -5 15 -24 20 -31 9z"/>
<path d="M2497 844 c-10 -14 -23 -21 -29 -18 -7 4 -8 2 -4 -4 9 -15 28 -6 44
19 19 30 10 32 -11 3z"/>
<path d="M2586 862 c-3 -4 4 -9 15 -9 23 -2 25 3 4 10 -8 4 -16 3 -19 -1z"/>
<path d="M2420 847 c0 -10 8 -17 18 -17 9 0 13 4 7 8 -5 4 -13 11 -17 16 -5 5
-8 2 -8 -7z"/>
<path d="M2790 853 c0 -13 29 -38 35 -31 3 3 -4 13 -15 23 -11 10 -20 13 -20
8z"/>
<path d="M3461 837 c-13 -21 -12 -21 5 -5 10 10 16 20 13 22 -3 3 -11 -5 -18
-17z"/>
<path d="M2540 840 c0 -5 5 -10 11 -10 5 0 7 5 4 10 -3 6 -8 10 -11 10 -2 0
-4 -4 -4 -10z"/>
<path d="M2630 840 c0 -5 5 -10 11 -10 5 0 7 5 4 10 -3 6 -8 10 -11 10 -2 0
-4 -4 -4 -10z"/>
<path d="M2760 843 c0 -12 38 -48 45 -41 3 2 -6 15 -20 28 -14 13 -25 19 -25
13z"/>
<path d="M562 811 c-12 -33 -1 -57 22 -48 9 4 16 1 16 -5 0 -7 7 -3 15 8 14
19 14 19 16 -1 0 -13 4 -8 10 14 6 18 8 36 5 39 -3 3 -6 -2 -6 -11 0 -28 -31
-17 -43 16 -9 25 -24 21 -35 -12z m28 -16 c0 -14 -4 -25 -10 -25 -5 0 -10 11
-10 25 0 14 5 25 10 25 6 0 10 -11 10 -25z"/>
<path d="M2566 813 c-6 -14 -5 -15 5 -6 7 7 10 15 7 18 -3 3 -9 -2 -12 -12z"/>
<path d="M2755 810 c10 -11 20 -20 23 -20 3 0 -3 9 -13 20 -10 11 -20 20 -23
20 -3 0 3 -9 13 -20z"/>
<path d="M2617 806 c-4 -10 1 -12 14 -9 23 6 24 9 5 16 -8 3 -17 0 -19 -7z"/>
<path d="M210 779 c0 -17 9 -42 19 -55 18 -22 21 -23 35 -8 33 32 10 94 -35
94 -15 0 -19 -7 -19 -31z"/>
<path d="M3166 799 c41 -12 56 -31 52 -66 -4 -37 -47 -61 -65 -36 -7 9 -14 35
-15 57 -1 39 -1 39 -5 7 -5 -34 13 -91 28 -91 21 0 59 21 68 39 21 39 -21 102
-67 100 -26 -1 -26 -1 4 -10z"/>
<path d="M924 791 c8 -12 -19 -33 -29 -23 -5 4 -5 1 0 -6 6 -11 10 -11 23 2
15 14 19 13 47 -12 26 -23 25 -22 -4 11 -33 35 -49 47 -37 28z"/>
<path d="M2558 783 c7 -3 16 -2 19 1 4 3 -2 6 -13 5 -11 0 -14 -3 -6 -6z"/>
<path d="M2620 780 c-8 -5 -12 -12 -9 -15 4 -3 12 1 19 10 14 17 11 19 -10 5z"/>
<path d="M926 718 c10 -14 21 -24 23 -22 3 3 -6 15 -18 27 l-24 22 19 -27z"/>
<path d="M2267 734 c-8 -8 1 -24 14 -24 5 0 9 7 9 15 0 15 -12 20 -23 9z"/>
<path d="M1100 659 c41 -41 77 -73 79 -71 7 4 -111 122 -134 134 -11 6 14 -22
55 -63z"/>
<path d="M564 675 c-10 -32 -2 -51 9 -22 4 10 6 10 6 0 1 -18 21 -16 21 2 0 8
-5 15 -11 15 -6 0 -9 9 -6 20 9 35 -8 22 -19 -15z"/>
<path d="M446 678 c-3 -13 -5 -32 -5 -43 1 -11 5 -2 10 19 10 42 6 62 -5 24z"/>
<path d="M618 676 c-13 -29 -5 -56 17 -56 23 0 41 46 25 65 -18 21 -29 19 -42
-9z m31 -28 c-5 -10 -14 -18 -19 -18 -14 0 -12 34 2 48 17 17 30 -6 17 -30z"/>
<path d="M2027 686 c-6 -15 1 -26 15 -26 4 0 8 9 8 20 0 23 -15 27 -23 6z"/>
<path d="M2216 675 c-8 -22 3 -40 16 -27 7 7 7 16 1 27 -9 16 -10 16 -17 0z"/>
<path d="M3423 678 c-25 -12 -47 -58 -40 -85 3 -12 5 -9 6 10 0 15 10 36 21
47 40 40 82 20 115 -57 31 -69 31 -71 -2 -84 -16 -5 -44 -18 -65 -29 -20 -10
-39 -16 -44 -12 -4 4 -4 1 0 -6 4 -7 10 -11 14 -8 4 2 30 13 57 25 86 38 96
44 84 52 -6 4 -8 12 -4 18 5 9 11 7 21 -6 9 -12 8 -4 -4 24 -9 24 -21 43 -25
43 -4 0 -3 -9 4 -21 8 -15 8 -24 0 -32 -6 -6 -11 -7 -12 -1 -8 66 -8 74 1 69
19 -12 10 12 -15 39 -26 28 -71 34 -112 14z m93 -12 c10 -8 16 -18 11 -22 -4
-4 -13 -1 -20 8 -6 9 -19 18 -27 21 -13 5 -13 6 1 6 8 1 24 -5 35 -13z"/>
<path d="M2095 660 c-8 -26 -1 -35 20 -26 18 7 17 37 -2 43 -6 2 -14 -5 -18
-17z m25 -5 c0 -8 -4 -15 -10 -15 -5 0 -7 7 -4 15 4 8 8 15 10 15 2 0 4 -7 4
-15z"/>
<path d="M2927 670 c12 -5 29 -20 39 -35 13 -20 14 -28 4 -40 -7 -8 -21 -15
-31 -15 -11 0 -19 -4 -19 -10 0 -13 38 2 92 36 24 15 63 36 88 45 25 10 38 18
29 19 -9 0 -43 -13 -75 -30 -32 -16 -60 -25 -62 -20 -9 26 -46 60 -65 59 l-22
0 22 -9z"/>
<path d="M948 645 c6 -11 21 -29 34 -40 22 -19 22 -19 -2 10 -40 48 -43 51
-32 30z"/>
<path d="M1015 648 c11 -6 27 -16 35 -22 9 -6 5 -1 -8 12 -13 12 -28 22 -35
22 -7 0 -3 -6 8 -12z"/>
<path d="M1972 636 c7 -8 15 -12 17 -11 5 6 -10 25 -20 25 -5 0 -4 -6 3 -14z"/>
<path d="M130 620 c0 -11 4 -20 9 -20 5 0 7 9 4 20 -3 11 -7 20 -9 20 -2 0 -4
-9 -4 -20z"/>
<path d="M422 615 c0 -16 2 -22 5 -12 2 9 2 23 0 30 -3 6 -5 -1 -5 -18z"/>
<path d="M1907 598 c-43 -58 -63 -93 -48 -84 11 7 13 4 9 -12 -4 -12 -2 -22 3
-22 5 0 9 -9 9 -20 0 -11 5 -20 11 -20 5 0 8 4 5 9 -7 11 34 2 50 -11 8 -6 15
1 22 19 5 15 13 37 17 48 7 19 7 20 -7 1 -8 -10 -20 -16 -26 -12 -6 3 -16 -2
-22 -11 -11 -17 -11 -17 -6 0 3 9 1 29 -5 43 -9 26 -10 26 -29 9 -25 -22 -26
-8 -2 23 l18 24 35 -21 c19 -12 39 -21 44 -21 6 0 -10 12 -35 27 -24 15 -39
28 -32 31 7 2 28 -6 47 -18 19 -12 35 -18 35 -13 0 5 -17 17 -37 27 -29 14
-34 20 -22 27 9 5 10 9 2 9 -7 0 -23 -15 -36 -32z"/>
<path d="M2136 615 c-7 -19 3 -47 15 -39 5 3 9 14 9 24 0 24 -16 34 -24 15z"/>
<path d="M76 611 c-11 -17 -27 -66 -19 -56 12 13 34 65 28 65 -2 0 -6 -4 -9
-9z"/>
<path d="M901 607 c-8 -11 -5 -19 12 -34 60 -54 173 -113 217 -113 23 0 70 59
70 88 0 12 -4 22 -9 22 -11 0 -63 -52 -57 -58 3 -2 16 9 30 24 17 19 25 24 26
14 0 -26 -39 -80 -58 -80 -10 0 -40 23 -67 50 -27 28 -53 50 -57 50 -4 0 -24
11 -44 25 -42 29 -48 30 -63 12z"/>
<path d="M3425 610 c-7 -12 2 -30 16 -30 17 0 40 28 29 35 -5 3 -10 1 -10 -6
0 -9 -3 -9 -14 0 -10 8 -16 9 -21 1z m20 -10 c3 -5 1 -10 -4 -10 -6 0 -11 5
-11 10 0 6 2 10 4 10 3 0 8 -4 11 -10z"/>
<path d="M445 601 c-12 -11 -3 -18 20 -13 14 2 25 7 25 11 0 7 -38 9 -45 2z"/>
<path d="M500 602 c0 -23 13 -42 23 -35 20 12 46 10 52 -4 2 -8 10 -11 16 -8
7 5 4 14 -7 26 -12 13 -20 16 -25 8 -4 -8 -14 -6 -33 6 -14 10 -26 13 -26 7z"/>
<path d="M707 595 c3 -8 9 -12 14 -9 12 7 11 11 -5 17 -10 4 -13 1 -9 -8z"/>
<path d="M1089 598 c7 -9 9 -23 5 -30 -6 -10 -4 -11 7 0 11 10 10 15 -6 30
-17 15 -18 15 -6 0z"/>
<path d="M1494 598 c-4 -7 -4 -10 1 -6 4 4 14 3 22 -4 11 -8 12 -7 7 6 -7 19
-20 21 -30 4z"/>
<path d="M607 593 c-12 -19 4 -43 29 -43 13 0 24 5 24 11 0 5 -5 7 -12 3 -8
-5 -9 -2 -4 11 5 15 4 16 -8 6 -11 -10 -15 -9 -18 6 -2 12 -6 14 -11 6z"/>
<path d="M1556 587 c3 -10 9 -15 12 -12 3 3 0 11 -7 18 -10 9 -11 8 -5 -6z"/>
<path d="M3815 583 c31 -8 38 -19 25 -43 -11 -20 -10 -22 4 -17 8 3 22 -1 31
-9 12 -12 13 -20 3 -37 -10 -20 -10 -21 5 -8 24 19 21 38 -8 57 -14 9 -22 20
-19 26 9 14 -16 38 -40 37 -20 -1 -20 -2 -1 -6z"/>
<path d="M166 563 c-6 -14 -5 -15 5 -6 7 7 10 15 7 18 -3 3 -9 -2 -12 -12z"/>
<path d="M2780 555 c-7 -9 -22 -12 -39 -9 -18 4 -32 0 -40 -10 -9 -10 -22 -13
-42 -9 -29 5 -69 -17 -69 -39 0 -4 9 1 20 12 23 23 33 24 61 9 16 -8 23 -6 38
13 16 19 21 20 34 10 13 -11 19 -10 37 8 16 16 24 18 41 10 32 -18 42 -51 30
-97 -14 -50 -52 -89 -101 -104 -79 -24 -141 10 -159 86 -8 35 -9 36 -10 11 -1
-39 33 -91 69 -106 17 -7 50 -10 76 -7 76 8 130 61 140 137 5 39 3 49 -20 73
-28 30 -48 34 -66 12z"/>
<path d="M3748 530 c-16 -21 -28 -44 -28 -51 0 -7 14 9 31 35 37 59 35 69 -3
16z"/>
<path d="M3391 544 c0 -11 3 -14 6 -6 3 7 2 16 -1 19 -3 4 -6 -2 -5 -13z"/>
<path d="M83 543 c9 -2 25 -2 35 0 9 3 1 5 -18 5 -19 0 -27 -2 -17 -5z"/>
<path d="M1474 531 c20 -22 26 -25 26 -13 0 4 -10 13 -22 21 -23 14 -23 14 -4
-8z"/>
<path d="M3467 533 c3 -9 13 -11 27 -7 36 11 37 19 1 20 -25 1 -32 -2 -28 -13z"/>
<path d="M1431 526 c-7 -8 -8 -17 -3 -20 6 -3 12 3 15 14 6 24 4 25 -12 6z"/>
<path d="M1612 527 c-30 -14 -62 -76 -62 -119 0 -38 24 -78 46 -78 8 0 19 -12
24 -26 10 -25 11 -25 35 -10 13 9 45 16 69 16 56 0 70 21 64 90 -10 99 -100
164 -176 127z m124 -42 c37 -39 52 -93 38 -134 -8 -23 -16 -26 -59 -29 -27 -2
-55 -8 -61 -13 -8 -6 -14 -4 -18 6 -3 8 -17 20 -31 25 -50 19 -56 105 -9 155
17 19 33 25 65 25 35 0 47 -6 75 -35z"/>
<path d="M1670 475 c0 -8 4 -15 9 -15 5 0 11 7 15 15 3 9 0 15 -9 15 -8 0 -15
-7 -15 -15z"/>
<path d="M1587 454 c-8 -8 3 -34 14 -34 11 0 12 27 0 34 -4 3 -11 3 -14 0z"/>
<path d="M1712 404 c3 -17 21 -21 26 -6 1 5 -4 12 -13 16 -11 4 -15 1 -13 -10z"/>
<path d="M1630 395 c0 -8 4 -15 9 -15 5 0 11 7 15 15 3 9 0 15 -9 15 -8 0 -15
-7 -15 -15z"/>
<path d="M1938 513 c7 -3 16 -2 19 1 4 3 -2 6 -13 5 -11 0 -14 -3 -6 -6z"/>
<path d="M2555 510 c3 -5 8 -10 11 -10 2 0 4 5 4 10 0 6 -5 10 -11 10 -5 0 -7
-4 -4 -10z"/>
<path d="M1369 473 c-18 -21 -25 -30 -13 -20 11 9 23 15 25 13 2 -3 9 6 16 20
6 13 10 24 9 24 -1 0 -18 -17 -37 -37z"/>
<path d="M218 488 c-32 -11 -40 -41 -36 -131 3 -52 0 -60 -22 -77 -21 -17 -23
-21 -10 -30 8 -5 19 -10 24 -10 5 0 17 -7 27 -16 14 -13 16 -20 7 -34 -9 -14
-9 -22 1 -34 18 -22 48 -20 60 3 12 22 68 33 92 18 36 -22 67 21 37 51 -9 9
-7 19 11 43 12 17 21 31 19 32 -37 19 -46 32 -65 93 -32 98 -68 121 -145 92z
m39 -91 c-1 -14 4 -22 13 -22 11 0 14 9 12 33 -3 26 0 32 16 32 25 0 38 -16
47 -60 4 -19 13 -45 21 -57 19 -31 18 -56 -7 -87 -17 -22 -29 -26 -68 -26 -70
0 -83 19 -87 125 -2 71 0 86 14 94 22 12 42 -4 39 -32z m133 -191 c0 -11 -19
-15 -25 -6 -3 5 1 10 9 10 9 0 16 -2 16 -4z m-130 -25 c0 -11 -31 -24 -39 -16
-3 3 1 10 9 15 19 12 30 12 30 1z"/>
<path d="M300 420 c0 -5 5 -10 10 -10 6 0 10 5 10 10 0 6 -4 10 -10 10 -5 0
-10 -4 -10 -10z"/>
<path d="M221 404 c0 -11 3 -14 6 -6 3 7 2 16 -1 19 -3 4 -6 -2 -5 -13z"/>
<path d="M1831 473 c-10 -26 -10 -27 4 -9 8 11 15 23 15 28 0 15 -7 8 -19 -19z"/>
<path d="M2061 486 c-6 -8 -14 -37 -18 -65 -3 -28 -10 -51 -14 -51 -5 0 -9 -4
-9 -10 0 -5 6 -7 13 -5 14 5 55 -55 49 -73 -2 -6 -19 -14 -37 -18 -46 -8 -64
-30 -42 -51 11 -11 37 -17 84 -19 37 -1 94 -9 126 -18 32 -9 70 -16 86 -16 15
0 36 -6 47 -14 19 -15 19 -15 -1 -30 -20 -16 -20 -16 -1 -31 25 -19 46 -19 46
0 0 12 -7 14 -27 9 -28 -7 -28 -7 -9 15 18 20 18 22 1 41 -10 11 -30 20 -45
20 -15 0 -65 9 -111 21 -46 11 -98 18 -116 16 -44 -8 -73 2 -73 24 0 13 7 19
24 19 13 0 34 8 47 19 l23 18 -22 28 c-25 31 -28 51 -9 58 7 3 4 6 -7 6 -16 1
-17 6 -12 39 14 76 28 91 56 57 15 -18 71 -20 89 -2 10 10 16 7 32 -13 10 -14
17 -33 15 -42 -2 -10 0 -18 6 -18 6 0 8 -11 6 -25 -6 -30 3 -32 27 -5 18 20
18 21 0 14 -13 -5 -16 -4 -11 4 8 13 -22 68 -52 95 -17 16 -20 16 -32 2 -16
-19 -49 -19 -74 0 -25 19 -40 19 -55 1z"/>
<path d="M3040 487 c-13 -7 -31 -30 -39 -52 -8 -22 -21 -44 -29 -48 -11 -7
-11 -12 2 -26 15 -16 14 -21 -6 -59 l-23 -42 24 -45 c19 -36 36 -51 84 -75 69
-34 116 -38 167 -12 41 20 80 83 80 129 0 31 -1 31 -40 26 -60 -8 -78 12 -72
82 6 78 -19 114 -93 129 -17 3 -41 0 -55 -7z m107 -31 c25 -22 28 -30 28 -91
0 -57 3 -69 23 -85 16 -14 32 -17 57 -13 41 7 44 -2 16 -64 -22 -47 -50 -69
-103 -78 -30 -6 -50 -1 -102 23 -66 31 -96 66 -96 112 0 26 30 80 45 80 5 0
16 4 24 9 11 7 10 14 -8 39 -25 36 -26 41 -5 70 22 31 83 30 121 -2z"/>
<path d="M3070 410 c0 -5 5 -10 10 -10 6 0 10 5 10 10 0 6 -4 10 -10 10 -5 0
-10 -4 -10 -10z"/>
<path d="M3155 253 c11 -3 27 -10 35 -17 13 -10 13 -9 1 7 -7 9 -23 16 -35 16
-20 -1 -20 -2 -1 -6z"/>
<path d="M3150 210 l-35 -7 32 -2 c17 0 35 4 38 9 3 6 5 9 3 9 -2 -1 -19 -5
-38 -9z"/>
<path d="M471 454 c-26 -33 -26 -39 0 -65 20 -20 22 -20 31 -5 6 10 7 20 4 23
-3 4 -6 1 -6 -5 0 -18 -27 -14 -34 4 -9 23 17 60 43 60 26 0 26 -5 4 -23 -16
-13 -16 -13 5 -3 27 13 24 34 -5 38 -13 2 -29 -7 -42 -24z"/>
<path d="M2735 470 c3 -5 8 -10 11 -10 2 0 4 5 4 10 0 6 -5 10 -11 10 -5 0 -7
-4 -4 -10z"/>
<path d="M3741 466 c2 -2 24 -6 48 -9 29 -4 40 -2 30 4 -13 8 -88 14 -78 5z"/>
<path d="M2670 450 c0 -5 5 -10 10 -10 6 0 10 5 10 10 0 6 -4 10 -10 10 -5 0
-10 -4 -10 -10z"/>
<path d="M2758 428 c-15 -15 -23 -28 -19 -28 9 0 56 49 50 53 -2 1 -16 -10
-31 -25z"/>
<path d="M830 440 c0 -5 5 -10 11 -10 5 0 7 5 4 10 -3 6 -8 10 -11 10 -2 0 -4
-4 -4 -10z"/>
<path d="M2307 433 c-4 -3 -7 -13 -7 -22 1 -13 3 -12 15 3 12 16 18 17 27 8 9
-9 8 -12 -5 -12 -17 0 -22 -11 -10 -23 3 -4 12 -2 19 4 11 9 12 6 3 -20 -6
-17 -9 -36 -7 -43 3 -7 31 -22 64 -33 53 -18 61 -25 81 -65 22 -45 28 -95 17
-137 -8 -27 -34 -31 -34 -5 0 10 -11 29 -25 42 -14 13 -25 18 -25 12 0 -6 5
-14 10 -17 16 -10 12 -23 -10 -30 -11 -3 -20 -11 -20 -17 0 -6 11 -3 25 6 27
18 39 21 31 7 -3 -4 3 -16 13 -25 16 -15 19 -15 34 2 18 20 24 80 12 130 -7
28 -5 32 12 32 24 0 58 34 48 49 -9 16 -37 14 -62 -4 -20 -14 -25 -13 -59 10
-20 14 -47 25 -58 25 -33 0 -46 18 -35 49 13 36 -4 81 -29 81 -10 0 -22 -3
-25 -7z m253 -167 c0 -15 -54 -39 -65 -28 -7 8 35 41 53 42 6 0 12 -6 12 -14z"/>
<path d="M875 420 c-3 -5 -1 -10 4 -10 6 0 11 5 11 10 0 6 -2 10 -4 10 -3 0
-8 -4 -11 -10z"/>
<path d="M1469 413 c-13 -16 -12 -17 4 -4 16 13 21 21 13 21 -2 0 -10 -8 -17
-17z"/>
<path d="M1155 410 c-3 -5 -15 -10 -26 -10 -31 0 -24 -37 11 -55 34 -18 40
-18 40 -4 0 5 -4 8 -8 5 -11 -7 -52 22 -52 36 0 5 6 8 14 5 8 -3 17 -1 20 6 3
9 8 8 15 -3 9 -13 11 -13 11 2 0 20 -16 32 -25 18z"/>
<path d="M1840 416 c0 -3 9 -10 20 -16 11 -6 20 -8 20 -6 0 3 -9 10 -20 16
-11 6 -20 8 -20 6z"/>
<path d="M2903 405 c0 -8 4 -12 9 -9 5 3 6 10 3 15 -9 13 -12 11 -12 -6z"/>
<path d="M830 395 c-9 -11 -16 -12 -31 -2 -16 10 -23 8 -45 -16 l-26 -28 23
-26 c47 -50 96 -48 141 6 16 19 16 21 -12 51 -32 35 -33 35 -50 15z m24 -50
c-22 -17 -52 -19 -74 -5 -10 6 -4 8 21 4 22 -4 39 -2 43 5 4 6 12 11 19 11 6
0 2 -7 -9 -15z"/>
<path d="M1925 389 c-4 -6 -14 -8 -24 -4 -13 5 -14 4 -3 -6 10 -11 15 -10 29
4 10 9 14 17 11 17 -4 0 -10 -5 -13 -11z"/>
<path d="M1370 380 c0 -5 5 -10 11 -10 5 0 7 5 4 10 -3 6 -8 10 -11 10 -2 0
-4 -4 -4 -10z"/>
<path d="M2160 375 c0 -9 5 -15 11 -13 6 2 11 8 11 13 0 5 -5 11 -11 13 -6 2
-11 -4 -11 -13z"/>
<path d="M3569 375 c-14 -7 -33 -31 -43 -52 -15 -35 -16 -41 -1 -75 18 -44 40
-58 93 -58 54 0 104 35 113 80 18 87 -79 150 -162 105z m131 -31 c18 -21 29
-43 26 -51 -3 -8 -6 -21 -6 -28 0 -14 -38 -55 -51 -55 -10 0 -33 60 -26 67 4
3 18 -2 33 -11 14 -10 28 -15 30 -13 3 3 -14 15 -37 28 -29 17 -47 35 -55 59
l-13 35 5 -37 c7 -40 -12 -138 -26 -138 -17 0 -50 53 -50 79 0 59 44 101 106
101 24 0 40 -9 64 -36z m-64 -76 c1 -13 5 -33 9 -45 6 -20 4 -23 -20 -23 -25
0 -26 2 -20 33 6 25 21 57 29 57 0 0 2 -10 2 -22z"/>
<path d="M2840 340 c6 -11 13 -20 15 -20 3 0 5 9 5 20 0 11 -7 20 -15 20 -13
0 -14 -4 -5 -20z"/>
<path d="M1060 307 c-14 -12 -41 -34 -60 -49 -19 -15 -30 -28 -25 -28 10 0
125 99 115 99 -3 0 -16 -10 -30 -22z"/>
<path d="M2754 318 c-4 -7 -4 -10 1 -6 4 4 15 2 24 -5 14 -11 14 -10 2 6 -16
20 -18 21 -27 5z"/>
<path d="M2651 299 c-1 -19 26 -45 36 -35 3 3 1 6 -6 6 -6 0 -16 10 -21 23 -6
15 -9 17 -9 6z"/>
<path d="M2728 298 c9 -9 9 -15 -1 -27 -11 -14 -10 -14 6 -2 13 10 15 17 6 27
-6 8 -14 14 -17 14 -3 0 -1 -5 6 -12z"/>
<path d="M1157 289 c6 -6 9 -17 7 -24 -3 -6 2 -12 11 -12 8 0 15 3 15 6 -1 11
-27 41 -36 41 -4 0 -3 -5 3 -11z"/>
<path d="M1445 290 c-4 -6 -15 -8 -24 -5 -21 6 -46 -18 -38 -38 3 -7 -4 -19
-14 -25 -25 -16 -24 -39 1 -52 11 -6 18 -16 14 -21 -9 -15 25 -49 42 -42 8 3
22 -5 32 -17 l18 -23 20 24 c11 14 30 24 44 24 20 0 25 5 25 25 0 14 6 30 13
35 10 8 9 15 -8 33 -12 12 -19 26 -15 31 12 20 -7 43 -32 36 -16 -4 -25 -1
-29 10 -7 17 -40 20 -49 5z m43 -28 c3 -17 -2 -22 -17 -22 -14 0 -21 6 -21 18
0 38 33 41 38 4z m-48 -23 c0 -28 -17 -32 -34 -7 -11 16 -13 25 -4 35 14 17
38 -1 38 -28z m100 12 c0 -24 -18 -37 -32 -23 -8 8 -7 16 2 27 17 21 30 19 30
-4z m-28 -45 c14 -32 5 -54 -27 -62 -31 -8 -55 10 -55 40 0 49 62 65 82 22z
m-108 8 c9 -3 16 -12 16 -19 0 -20 -26 -25 -47 -10 -16 13 -16 16 -3 25 18 12
15 11 34 4z m160 -34 c-14 -14 -38 5 -30 26 6 16 8 16 23 1 11 -11 14 -20 7
-27z m-130 -51 c-3 -5 -12 -9 -20 -9 -14 0 -20 31 -7 44 9 9 34 -24 27 -35z
m120 1 c-6 -6 -18 -8 -27 -4 -13 5 -14 9 -4 25 10 16 13 17 26 4 11 -10 12
-18 5 -25z m-54 -9 c0 -5 -6 -14 -14 -20 -12 -10 -17 -8 -26 8 -9 19 -8 21 15
21 14 0 25 -4 25 -9z"/>
<path d="M1487 196 c-4 -9 -13 -13 -22 -10 -11 5 -14 2 -9 -9 3 -9 12 -13 19
-11 14 6 29 34 21 41 -2 2 -6 -3 -9 -11z"/>
<path d="M604 276 c-4 -11 -13 -14 -30 -10 -15 4 -24 2 -24 -5 0 -6 4 -11 9
-11 5 0 7 -10 3 -22 -4 -18 -2 -20 14 -13 10 4 31 10 46 13 15 2 25 8 22 13
-9 15 8 10 30 -8 21 -18 21 -18 4 3 -10 11 -18 26 -18 33 0 7 -5 9 -10 6 -6
-4 -17 -1 -25 5 -12 10 -16 9 -21 -4z"/>
<path d="M1120 271 c0 -11 4 -22 9 -25 4 -3 6 6 3 19 -5 30 -12 33 -12 6z"/>
<path d="M1912 266 c7 -8 15 -12 17 -11 5 6 -10 25 -20 25 -5 0 -4 -6 3 -14z"/>
<path d="M1830 263 c0 -5 13 -17 28 -27 l27 -19 -24 26 c-26 28 -31 32 -31 20z"/>
<path d="M1100 246 c0 -8 4 -17 9 -20 5 -4 7 3 4 14 -6 23 -13 26 -13 6z"/>
<path d="M1780 254 c0 -3 11 -19 25 -36 14 -16 25 -25 25 -20 0 5 -11 21 -25
36 -14 15 -25 24 -25 20z"/>
<path d="M1840 220 c6 -11 13 -20 16 -20 2 0 0 9 -6 20 -6 11 -13 20 -16 20
-2 0 0 -9 6 -20z"/>
<path d="M1920 226 c0 -8 4 -17 9 -20 5 -4 7 3 4 14 -6 23 -13 26 -13 6z"/>
<path d="M825 222 c-5 -4 -16 -15 -24 -25 -12 -15 -12 -17 0 -12 8 3 20 14 27
25 13 22 13 24 -3 12z"/>
<path d="M1040 224 c0 -4 8 -13 18 -20 10 -8 12 -13 5 -14 -7 0 -13 -5 -13
-12 0 -9 3 -9 12 0 9 9 15 9 27 0 9 -7 3 2 -13 20 -30 33 -36 37 -36 26z"/>
<path d="M1210 215 c-7 -8 -21 -15 -32 -15 -17 0 -19 -4 -13 -22 4 -13 7 -41
7 -63 -1 -32 1 -36 9 -22 9 15 13 16 27 5 9 -7 6 1 -8 16 -22 26 -23 28 -5 21
37 -14 46 -10 61 25 12 31 12 33 -1 16 -8 -11 -15 -26 -15 -33 0 -18 -13 -16
-44 8 -31 24 -33 39 -7 39 10 0 24 7 31 15 10 12 16 13 29 3 14 -12 14 -11 2
5 -17 21 -25 21 -41 2z"/>
<path d="M1782 208 c7 -13 11 -27 10 -31 -1 -5 2 -6 8 -2 6 4 4 15 -6 31 -20
30 -29 32 -12 2z"/>
<path d="M3409 213 c-13 -16 -12 -17 4 -4 16 13 21 21 13 21 -2 0 -10 -8 -17
-17z"/>
<path d="M3470 226 c0 -2 8 -10 18 -17 15 -13 16 -12 3 4 -13 16 -21 21 -21
13z"/>
<path d="M875 202 c-5 -4 -17 -16 -25 -27 -11 -15 -7 -14 13 4 24 22 32 31 25
31 -2 0 -7 -4 -13 -8z"/>
<path d="M1012 193 c16 -28 2 -43 -17 -17 -21 28 -18 10 6 -30 22 -37 37 -51
19 -17 -12 24 7 42 21 20 6 -9 9 -10 9 -2 0 7 -11 25 -26 40 -18 20 -22 22
-12 6z"/>
<path d="M1873 190 c-10 -11 -25 -20 -34 -20 -9 0 -22 -7 -29 -16 -12 -13 -16
-12 -37 10 -37 40 -38 30 -1 -14 31 -39 120 -110 136 -110 4 0 -19 18 -51 41
-31 22 -57 46 -57 52 0 6 10 1 23 -10 32 -30 100 -73 113 -73 15 0 7 81 -12
128 -15 37 -27 40 -51 12z"/>
<path d="M691 184 c0 -11 3 -14 6 -6 3 7 2 16 -1 19 -3 4 -6 -2 -5 -13z"/>
<path d="M3425 189 c-4 -6 -5 -13 -2 -16 7 -7 27 6 27 18 0 12 -17 12 -25 -2z"/>
<path d="M2846 175 c4 -8 8 -15 10 -15 2 0 4 7 4 15 0 8 -4 15 -10 15 -5 0 -7
-7 -4 -15z"/>
<path d="M2880 175 c0 -8 7 -15 16 -15 14 0 14 3 4 15 -7 8 -14 15 -16 15 -2
0 -4 -7 -4 -15z"/>
<path d="M3465 180 c-4 -6 -3 -16 3 -22 13 -13 23 4 13 21 -7 10 -10 10 -16 1z"/>
<path d="M781 149 c12 -28 54 -57 66 -46 3 4 -1 7 -10 7 -8 0 -27 15 -42 33
-23 29 -25 29 -14 6z"/>
<path d="M682 140 c0 -14 2 -19 5 -12 2 6 2 18 0 25 -3 6 -5 1 -5 -13z"/>
<path d="M2815 150 c3 -5 -3 -15 -14 -21 -10 -7 -17 -19 -14 -27 5 -11 7 -11
14 -1 6 10 11 7 18 -11 5 -14 10 -19 10 -11 1 8 8 11 21 8 11 -3 17 -1 14 4
-3 6 0 17 7 25 10 12 10 17 -1 27 -10 10 -12 9 -7 -5 9 -24 -19 -44 -38 -28
-11 9 -13 16 -5 24 13 13 13 26 -1 26 -5 0 -7 -4 -4 -10z"/>
<path d="M3815 148 c-61 -11 -85 -31 -82 -68 1 -15 5 -26 9 -24 4 3 20 -2 35
-9 35 -19 66 -6 92 37 24 40 35 76 23 76 -5 0 -12 -12 -15 -28 -9 -44 -45 -84
-73 -80 -29 4 -33 19 -8 33 28 15 47 35 41 42 -3 3 -13 -2 -22 -11 -9 -9 -23
-16 -31 -16 -8 0 -14 -4 -14 -10 0 -5 -4 -10 -10 -10 -5 0 -10 9 -10 19 0 20
44 41 86 41 13 0 26 5 29 10 3 6 5 9 3 9 -2 -1 -25 -6 -53 -11z"/>
<path d="M540 144 c0 -6 15 -23 33 -40 l32 -29 -30 35 c-16 19 -31 37 -32 39
-2 2 -3 0 -3 -5z"/>
<path d="M881 129 c-13 -10 -19 -19 -15 -19 13 1 48 29 43 34 -2 2 -15 -4 -28
-15z"/>
<path d="M2896 134 c-8 -22 -4 -25 11 -9 7 8 9 16 4 19 -5 3 -12 -1 -15 -10z"/>
<path d="M2827 134 c-8 -8 1 -24 14 -24 5 0 9 7 9 15 0 15 -12 20 -23 9z"/>
<path d="M3360 125 c-7 -9 -11 -17 -9 -20 3 -2 10 5 17 15 14 24 10 26 -8 5z"/>
<path d="M610 119 c0 -5 5 -7 10 -4 6 3 10 8 10 11 0 2 -4 4 -10 4 -5 0 -10
-5 -10 -11z"/>
<path d="M1133 123 c-7 -2 -12 -14 -12 -26 1 -17 2 -18 6 -4 2 9 11 17 19 17
8 0 14 5 14 10 0 11 -7 12 -27 3z"/>
<path d="M668 88 c-10 -10 -14 -18 -9 -18 10 0 36 29 30 34 -2 1 -12 -6 -21
-16z"/>
<path d="M3420 86 c0 -2 8 -10 18 -17 15 -13 16 -12 3 4 -13 16 -21 21 -21 13z"/>
<path d="M1048 53 c17 -2 47 -2 65 0 17 2 3 4 -33 4 -36 0 -50 -2 -32 -4z"/>
</g>
</svg>
