<?xml version="1.0" standalone="no"?>
<!DOCTYPE svg PUBLIC "-//W3C//DTD SVG 20010904//EN"
 "http://www.w3.org/TR/2001/REC-SVG-20010904/DTD/svg10.dtd">
<svg version="1.0" xmlns="http://www.w3.org/2000/svg"
 width="48.000000pt" height="48.000000pt" viewBox="0 0 48.000000 48.000000"
 preserveAspectRatio="xMidYMid meet">
<g transform="translate(0.000000,48.000000) scale(0.100000,-0.100000)"
fill="#000000 " stroke="none">
<path d="M17 453 c-9 -8 -9 -406 -1 -427 5 -14 35 -16 224 -16 189 0 219 2
224 16 3 9 6 94 6 189 l0 174 -31 36 -31 35 -192 0 c-106 0 -196 -3 -199 -7z
m398 -23 c10 -11 15 -23 12 -27 -4 -4 -14 2 -22 13 -14 18 -14 18 -15 -3 0
-19 5 -23 30 -23 l30 0 0 -180 0 -180 -210 0 -210 0 0 210 0 210 183 0 c171 0
185 -1 202 -20z"/>
<path d="M121 395 c-72 -34 -61 -41 15 -10 60 25 94 31 94 17 0 -4 -29 -37
-65 -72 -73 -72 -83 -107 -31 -103 29 2 82 31 73 40 -3 2 -19 -3 -37 -12 -17
-9 -39 -15 -48 -13 -13 3 0 21 51 72 76 76 86 106 35 106 -18 0 -57 -11 -87
-25z"/>
<path d="M224 234 c4 -17 40 -62 86 -109 l80 -80 22 23 23 22 -80 80 c-47 46
-92 82 -109 86 -28 7 -29 6 -22 -22z m100 -53 c38 -39 56 -63 51 -72 -6 -9 -3
-11 8 -6 20 8 33 -11 18 -26 -8 -8 -31 8 -86 63 -41 41 -75 80 -75 87 0 26 27
11 84 -46z"/>
<path d="M45 50 c3 -5 8 -10 11 -10 2 0 4 5 4 10 0 6 -5 10 -11 10 -5 0 -7 -4
-4 -10z"/>
<path d="M75 50 c3 -5 8 -10 11 -10 2 0 4 5 4 10 0 6 -5 10 -11 10 -5 0 -7 -4
-4 -10z"/>
<path d="M105 50 c3 -5 8 -10 11 -10 2 0 4 5 4 10 0 6 -5 10 -11 10 -5 0 -7
-4 -4 -10z"/>
</g>
</svg>
